<?xml version="1.0" standalone="no"?>
<!DOCTYPE svg PUBLIC "-//W3C//DTD SVG 20010904//EN"
 "http://www.w3.org/TR/2001/REC-SVG-20010904/DTD/svg10.dtd">
<svg version="1.0" xmlns="http://www.w3.org/2000/svg"
 width="266.000000pt" height="190.000000pt" viewBox="0 0 266.000000 190.000000"
 preserveAspectRatio="xMidYMid meet">

<g transform="translate(0.000000,190.000000) scale(0.100000,-0.100000)"
fill="#000000" stroke="none">
<path d="M1820 1711 c0 -6 16 -7 37 -4 27 5 34 3 29 -6 -6 -9 2 -11 31 -7 28
5 33 4 18 -3 -19 -9 -19 -10 3 -10 12 -1 25 6 28 14 4 8 10 12 16 9 5 -3 4
-12 -4 -22 -10 -12 -10 -14 0 -8 8 5 12 1 12 -13 0 -11 -9 -22 -21 -26 -11 -4
-18 -9 -16 -12 9 -8 64 25 71 42 9 23 9 23 -27 40 -24 11 -41 13 -64 6 -20 -6
-35 -6 -38 0 -8 12 -75 12 -75 0z m194 -36 c-4 -8 -7 -15 -9 -15 -2 0 -5 7 -9
15 -3 9 0 15 9 15 9 0 12 -6 9 -15z"/>
<path d="M905 1700 c-3 -5 3 -10 14 -10 11 0 23 5 26 10 3 6 -3 10 -14 10 -11
0 -23 -4 -26 -10z"/>
<path d="M1780 1700 c0 -5 5 -10 10 -10 6 0 10 5 10 10 0 6 -4 10 -10 10 -5 0
-10 -4 -10 -10z"/>
<path d="M1720 1685 c0 -21 38 -43 90 -51 25 -3 55 -13 67 -20 32 -20 39 -17
18 6 -10 11 -29 20 -42 20 -14 0 -21 4 -18 10 3 6 34 11 68 12 61 2 61 2 12 6
-27 2 -68 -2 -89 -8 -31 -9 -40 -9 -47 2 -7 10 -9 10 -9 0 0 -10 -5 -10 -20
-2 -26 14 -26 34 0 27 11 -3 18 -1 14 4 -9 15 -44 10 -44 -6z"/>
<path d="M846 1681 c-4 -7 -5 -15 -2 -18 9 -9 19 4 14 18 -4 11 -6 11 -12 0z"/>
<path d="M1823 1683 c9 -2 25 -2 35 0 9 3 1 5 -18 5 -19 0 -27 -2 -17 -5z"/>
<path d="M1560 1671 c-46 -14 -105 -49 -132 -78 -32 -34 -73 -115 -83 -163 -5
-27 2 -18 28 35 59 119 149 184 255 185 39 0 52 4 52 15 0 11 -12 15 -47 14
-27 0 -59 -4 -73 -8z"/>
<path d="M2046 1666 c3 -8 -3 -19 -15 -25 -26 -14 -49 -54 -26 -45 8 4 15 12
15 20 0 8 5 14 10 14 14 0 12 -43 -2 -60 -7 -8 0 -4 15 10 32 28 60 19 65 -21
2 -21 -6 -28 -60 -51 -35 -14 -72 -29 -82 -32 -33 -11 -11 -16 24 -6 23 6 36
6 40 0 4 -6 12 1 18 15 12 25 32 34 32 14 0 -5 4 -8 9 -5 5 3 19 -3 32 -13 20
-16 21 -21 10 -35 -8 -9 -34 -23 -60 -30 -31 -10 -38 -15 -22 -15 30 -1 111
45 111 62 0 7 -17 23 -37 35 -24 13 -31 22 -20 22 11 0 17 8 17 24 0 40 -11
56 -49 72 -20 9 -30 18 -23 21 14 6 16 29 2 38 -5 3 -7 0 -4 -9z"/>
<path d="M943 1653 c15 -2 37 -2 50 0 12 2 0 4 -28 4 -27 0 -38 -2 -22 -4z"/>
<path d="M854 1638 c-5 -7 -3 -8 5 -4 7 5 21 0 32 -10 22 -19 33 -15 23 10 -7
18 -49 22 -60 4z"/>
<path d="M1045 1641 c11 -5 23 -7 28 -4 4 2 7 0 7 -5 0 -6 8 -13 17 -16 16 -6
16 -6 0 11 -9 10 -29 19 -44 20 -23 1 -25 0 -8 -6z"/>
<path d="M1685 1626 c-9 -13 -20 -37 -24 -54 -8 -25 -6 -30 5 -25 9 3 12 0 9
-9 -3 -8 2 -21 12 -29 16 -13 17 -12 4 4 -8 9 -11 20 -8 23 7 8 67 -37 62 -46
-5 -8 44 -31 125 -59 57 -20 56 -22 -20 -40 -39 -9 -40 -9 -7 -5 28 4 37 2 32
-6 -6 -9 -2 -9 13 -1 11 6 47 11 79 12 37 0 51 3 39 8 -17 7 -15 10 16 29 20
12 42 30 49 40 13 16 12 16 -7 0 -11 -10 -24 -18 -28 -18 -4 0 -19 -9 -35 -21
l-28 -21 -89 32 c-113 40 -121 46 -88 72 14 11 23 23 20 26 -4 3 1 15 11 26 9
12 -1 4 -21 -17 -21 -22 -42 -35 -46 -30 -5 4 -13 31 -19 58 l-10 50 4 -52 c2
-29 1 -53 -3 -53 -4 1 -20 12 -37 25 l-30 25 22 40 c23 44 22 54 -2 16z"/>
<path d="M1154 1619 c4 -13 8 -30 8 -36 1 -7 13 -27 28 -45 20 -24 29 -28 35
-18 5 8 4 11 -2 7 -15 -9 -47 41 -47 75 -1 17 -7 33 -15 36 -11 4 -12 -1 -7
-19z"/>
<path d="M799 1603 c-13 -16 -12 -17 4 -4 9 7 17 15 17 17 0 8 -8 3 -21 -13z"/>
<path d="M1025 1600 c-3 -5 -1 -10 4 -10 6 0 11 5 11 10 0 6 -2 10 -4 10 -3 0
-8 -4 -11 -10z"/>
<path d="M1120 1606 c0 -2 8 -10 18 -17 15 -13 16 -12 3 4 -13 16 -21 21 -21
13z"/>
<path d="M1200 1602 c0 -5 9 -17 20 -27 22 -20 26 -14 10 16 -11 19 -30 26
-30 11z"/>
<path d="M806 1571 c-3 -5 0 -11 7 -13 17 -7 38 2 31 13 -7 12 -31 12 -38 0z"/>
<path d="M1976 1565 c-3 -8 -18 -16 -33 -16 l-28 -1 30 -7 c36 -9 65 3 65 26
0 14 -2 14 -15 -3 -13 -16 -14 -16 -9 -1 7 21 -2 23 -10 2z"/>
<path d="M750 1555 c-11 -13 -15 -13 -21 -3 -6 9 -9 9 -9 1 0 -21 17 -23 35
-3 10 11 16 20 13 20 -3 0 -11 -7 -18 -15z"/>
<path d="M1620 1525 c-10 -12 -8 -20 9 -41 12 -15 21 -21 21 -14 0 7 -8 18
-17 25 -15 11 -15 15 -4 29 7 9 11 16 8 16 -2 0 -10 -7 -17 -15z"/>
<path d="M1910 1510 c-19 -11 -30 -19 -25 -19 6 0 26 8 45 19 19 11 31 19 25
19 -5 0 -26 -8 -45 -19z"/>
<path d="M712 1500 c-7 -11 -12 -25 -12 -32 0 -7 7 0 15 16 18 33 15 45 -3 16z"/>
<path d="M1255 1504 c9 -7 25 -10 36 -7 27 7 14 18 -22 18 -25 0 -27 -2 -14
-11z"/>
<path d="M1223 1493 c4 -3 -1 -12 -11 -20 -15 -13 -15 -13 6 -3 19 9 23 30 5
30 -4 0 -3 -3 0 -7z"/>
<path d="M1850 1480 c-9 -6 -10 -10 -3 -10 6 0 15 5 18 10 8 12 4 12 -15 0z"/>
<path d="M634 1456 c-11 -18 -13 -30 -5 -43 11 -20 13 -16 25 40 8 33 1 34
-20 3z"/>
<path d="M1290 1469 c0 -8 7 -24 15 -35 11 -15 14 -16 15 -3 0 8 -7 24 -15 35
-11 15 -14 16 -15 3z"/>
<path d="M1893 1473 c9 -2 25 -2 35 0 9 3 1 5 -18 5 -19 0 -27 -2 -17 -5z"/>
<path d="M1246 1457 c3 -10 9 -15 12 -12 3 3 0 11 -7 18 -10 9 -11 8 -5 -6z"/>
<path d="M790 1445 c-17 -20 9 -21 36 0 19 14 19 14 -2 15 -12 0 -27 -7 -34
-15z"/>
<path d="M1665 1430 c10 -11 20 -20 23 -20 3 0 -3 9 -13 20 -10 11 -20 20 -23
20 -3 0 3 -9 13 -20z"/>
<path d="M746 1411 c-8 -13 18 -21 45 -14 22 6 22 7 3 14 -27 11 -42 11 -48 0z"/>
<path d="M610 1385 c0 -18 19 -40 26 -32 4 4 0 15 -9 24 -9 10 -17 13 -17 8z"/>
<path d="M1756 1368 c21 -24 27 -25 -48 5 -23 10 -31 8 -45 -7 -17 -18 -17
-18 4 -5 33 20 93 -13 94 -50 0 -26 0 -26 9 -3 12 28 50 29 75 2 17 -19 18
-28 8 -84 -10 -60 -77 -216 -93 -216 -12 0 -20 28 -20 70 0 21 -4 42 -10 45
-6 4 -7 -6 -3 -26 4 -23 3 -30 -5 -25 -8 5 -10 2 -6 -8 3 -9 1 -16 -4 -16 -19
0 -62 23 -57 30 3 4 -7 8 -21 8 -34 0 -74 22 -74 41 0 9 -5 23 -10 31 -7 11
-8 9 -6 -11 4 -40 28 -66 73 -78 23 -6 45 -16 48 -21 3 -6 19 -10 35 -10 27 0
50 -22 50 -48 0 -14 -91 -131 -156 -202 -32 -34 -105 -102 -163 -151 -58 -50
-115 -98 -126 -108 -11 -9 -41 -34 -67 -54 l-46 -38 -74 56 c-40 30 -124 81
-185 112 -95 48 -123 58 -178 61 -79 5 -137 -14 -184 -60 -56 -55 -76 -103
-76 -189 0 -67 3 -81 30 -124 17 -27 50 -63 74 -80 39 -27 50 -30 125 -30 76
0 87 3 176 46 52 25 138 75 191 111 l97 64 88 -68 c139 -106 258 -158 365
-158 214 0 341 208 213 350 -45 49 -106 70 -198 69 l-71 -2 80 -7 c127 -11
204 -64 220 -151 22 -119 -99 -239 -240 -239 -51 0 -144 28 -215 65 -65 35
-213 146 -212 159 1 4 24 25 52 47 41 32 57 40 78 35 24 -6 25 -5 10 7 -16 13
-13 18 35 58 28 24 96 83 149 131 53 49 102 88 110 88 7 0 28 -9 46 -20 34
-21 46 -25 39 -12 -3 4 44 5 104 2 60 -3 109 -2 109 3 0 4 -44 8 -97 8 -54 1
-111 4 -128 8 l-30 6 46 18 c26 10 55 28 65 40 l19 22 -22 -19 c-20 -16 -23
-17 -29 -3 -3 8 -1 24 5 36 6 11 11 23 11 28 -1 4 -8 -5 -16 -20 -8 -15 -12
-36 -9 -46 4 -15 -2 -21 -26 -30 -18 -6 -45 -11 -61 -11 l-30 0 49 58 c100
116 183 268 203 370 21 109 16 101 55 92 47 -11 63 -25 68 -63 4 -30 4 -30 5
6 2 32 -3 40 -28 56 -16 10 -27 21 -22 25 4 5 -17 5 -46 1 -58 -8 -144 8 -163
31 -6 8 -16 14 -22 14 -5 0 -2 -10 9 -22z m124 -48 c0 -5 -4 -10 -9 -10 -6 0
-13 5 -16 10 -3 6 1 10 9 10 9 0 16 -4 16 -10z m-978 -727 c84 -40 183 -102
241 -149 l27 -23 -77 -55 c-109 -78 -267 -156 -328 -163 -98 -11 -183 34 -227
120 -16 32 -19 54 -16 113 3 61 8 79 34 116 47 68 94 89 184 86 64 -3 88 -9
162 -45z"/>
<path d="M681 1364 c0 -11 3 -14 6 -6 3 7 2 16 -1 19 -3 4 -6 -2 -5 -13z"/>
<path d="M2004 1364 c-18 -14 -18 -15 4 -4 12 6 22 13 22 15 0 8 -5 6 -26 -11z"/>
<path d="M1270 1350 c16 -30 32 -35 28 -10 -1 13 -11 24 -20 26 -14 2 -16 -1
-8 -16z"/>
<path d="M690 1296 c0 -14 4 -27 8 -30 5 -3 6 8 4 25 -5 35 -12 38 -12 5z"/>
<path d="M1931 1284 c0 -11 3 -14 6 -6 3 7 2 16 -1 19 -3 4 -6 -2 -5 -13z"/>
<path d="M655 1250 c20 -22 39 -27 33 -8 -2 6 -15 15 -28 20 -23 9 -23 8 -5
-12z"/>
<path d="M712 1198 c7 -15 15 -23 17 -17 2 6 -4 18 -13 27 -15 15 -15 15 -4
-10z"/>
<path d="M810 1197 c-14 -29 -7 -48 11 -30 6 6 9 21 7 34 l-4 24 -14 -28z"/>
<path d="M1600 1198 c63 -19 92 -31 107 -47 14 -13 15 -13 11 -1 -6 19 -62 46
-113 53 l-40 6 35 -11z"/>
<path d="M845 1160 c-3 -5 3 -10 15 -10 12 0 18 5 15 10 -3 6 -10 10 -15 10
-5 0 -12 -4 -15 -10z"/>
<path d="M730 1155 c1 -6 7 -21 16 -35 l15 -25 -7 25 c-7 26 -24 52 -24 35z"/>
<path d="M1640 1150 c-9 -6 -10 -10 -3 -10 6 0 15 5 18 10 8 12 4 12 -15 0z"/>
<path d="M1660 1136 c0 -2 7 -9 15 -16 13 -11 14 -10 9 4 -5 14 -24 23 -24 12z"/>
<path d="M769 1075 c17 -33 31 -51 31 -40 0 6 -10 21 -21 35 -13 17 -17 18
-10 5z"/>
<path d="M886 1034 c-8 -30 1 -67 15 -59 12 8 12 72 0 79 -5 3 -12 -6 -15 -20z"/>
<path d="M730 1021 c0 -12 5 -21 10 -21 6 0 10 6 10 14 0 8 -4 18 -10 21 -5 3
-10 -3 -10 -14z"/>
<path d="M1831 983 c-24 -24 -41 -47 -37 -50 3 -3 6 -1 6 5 0 7 4 12 8 12 7 0
12 -23 15 -67 0 -7 3 -10 7 -8 4 3 6 24 4 48 -3 36 0 48 21 67 l24 23 6 -29
c4 -16 11 -44 16 -63 10 -41 2 -59 -48 -101 -25 -21 -29 -28 -13 -20 37 20
105 110 82 110 -5 0 -14 25 -21 55 -7 30 -15 56 -19 58 -4 2 -27 -16 -51 -40z"/>
<path d="M829 972 c5 -10 18 -25 27 -33 11 -9 9 -2 -6 19 -26 35 -36 42 -21
14z"/>
<path d="M917 966 c-13 -19 -16 -31 -9 -38 12 -12 35 25 30 50 -2 12 -7 10
-21 -12z"/>
<path d="M770 940 c-12 -8 -9 -10 13 -10 16 0 26 4 22 10 -8 12 -16 12 -35 0z"/>
<path d="M876 905 c4 -8 11 -15 16 -15 6 0 5 6 -2 15 -7 8 -14 15 -16 15 -2 0
-1 -7 2 -15z"/>
<path d="M900 877 c0 -2 15 -16 33 -33 l32 -29 -29 33 c-28 30 -36 37 -36 29z"/>
<path d="M997 873 c-4 -3 -7 -11 -7 -17 0 -6 5 -5 12 2 6 6 9 14 7 17 -3 3 -9
2 -12 -2z"/>
<path d="M2140 861 c-8 -5 -49 -8 -89 -7 -69 3 -77 1 -98 -22 -31 -33 -29 -42
2 -12 14 13 25 18 25 11 0 -10 3 -9 13 1 9 9 33 12 75 10 l62 -4 -15 -28 c-8
-15 -20 -30 -27 -33 -8 -4 -7 -6 4 -6 9 -1 20 8 23 19 4 11 18 34 32 50 25 30
22 38 -7 21z"/>
<path d="M830 831 c0 -17 31 -41 51 -41 11 0 17 5 14 10 -10 15 -65 42 -65 31z"/>
<path d="M903 801 c2 -11 6 -23 10 -27 3 -4 -4 -15 -16 -25 -26 -22 -5 -26 32
-5 19 11 21 14 7 19 -9 4 -16 15 -16 26 0 11 -5 23 -10 26 -6 4 -9 -2 -7 -14z"/>
<path d="M970 802 c0 -4 18 -26 40 -47 32 -31 42 -37 52 -26 11 10 10 11 -3 6
-10 -4 -28 8 -52 35 -21 22 -37 36 -37 32z"/>
<path d="M1078 774 c-3 -5 -1 -20 5 -34 8 -20 11 -22 14 -8 5 20 -12 55 -19
42z"/>
<path d="M1978 773 c7 -3 16 -2 19 1 4 3 -2 6 -13 5 -11 0 -14 -3 -6 -6z"/>
<path d="M2035 760 c4 -6 -7 -10 -24 -10 -17 0 -31 -4 -31 -8 0 -13 68 -1 81
14 9 11 7 14 -10 14 -12 0 -19 -4 -16 -10z"/>
<path d="M1775 743 c17 -3 34 -8 39 -13 10 -10 36 -2 36 11 0 5 -24 8 -52 8
-34 -1 -42 -4 -23 -6z"/>
<path d="M1110 721 c-7 -15 -7 -21 0 -21 12 0 25 28 17 36 -3 3 -10 -4 -17
-15z"/>
<path d="M1870 730 c-11 -7 -11 -10 -2 -10 7 0 11 -3 9 -7 -3 -5 5 -8 17 -8
13 0 23 5 23 11 0 6 -10 9 -21 7 -17 -4 -18 -3 -6 6 19 13 1 14 -20 1z"/>
<path d="M1933 705 c0 -8 11 -25 25 -37 l25 -23 -17 32 c-18 36 -33 49 -33 28z"/>
<path d="M1106 673 c49 -45 80 -70 111 -88 28 -17 28 -17 6 1 -46 40 -146 114
-117 87z"/>
<path d="M1830 680 c11 -11 26 -20 34 -20 8 0 16 -4 18 -10 2 -5 9 -6 17 -1
10 7 5 11 -17 16 -17 3 -36 13 -43 21 -6 8 -15 14 -20 14 -5 0 0 -9 11 -20z"/>
<path d="M1000 645 c23 -25 60 -34 60 -15 0 8 -62 40 -78 40 -3 0 5 -11 18
-25z"/>
<path d="M1921 647 c3 -4 22 -13 42 -22 29 -12 35 -12 31 -2 -3 8 -10 14 -17
15 -7 0 -23 4 -37 8 -14 4 -23 4 -19 1z"/>
<path d="M1090 635 c0 -5 4 -17 10 -25 6 -9 5 -17 -3 -22 -8 -5 -4 -8 11 -8
12 0 22 4 22 9 0 12 -39 58 -40 46z"/>
<path d="M1548 583 c7 -3 16 -2 19 1 4 3 -2 6 -13 5 -11 0 -14 -3 -6 -6z"/>
</g>
</svg>
