<?xml version="1.0" standalone="no"?>
<!DOCTYPE svg PUBLIC "-//W3C//DTD SVG 1.1//EN"
 "http://www.w3.org/Graphics/SVG/1.1/DTD/svg11.dtd">
<!-- Created with svg_stack (http://github.com/astraw/svg_stack) -->
<svg xmlns:sodipodi="http://sodipodi.sourceforge.net/DTD/sodipodi-0.dtd" xmlns="http://www.w3.org/2000/svg" version="1.1" width="146.0" height="296.0">
  <defs/>
  <g id="id0:id0" transform="matrix(1.25,0,0,1.25,0.0,0.0)"><g transform="translate(0.000000,236.800000) scale(0.040000,-0.040000)" fill="#fefefe" stroke="none">
<path d="M1302 5900 c0 -14 2 -19 5 -12 2 6 2 18 0 25 -3 6 -5 1 -5 -13z"/>
<path d="M1296 5783 c-6 -14 -5 -15 5 -6 7 7 10 15 7 18 -3 3 -9 -2 -12 -12z"/>
<path d="M1110 5553 c0 -5 14 -22 30 -38 22 -21 33 -26 41 -18 8 8 7 13 -2 18 -8 5 -10 4 -5 -3 15 -25 -14 -10 -38 19 -14 17 -26 27 -26 22z"/>
<path d="M1273 5517 c-10 -22 -9 -23 21 -18 25 4 26 6 9 9 -14 2 -20 8 -16 18 9 23 -3 16 -14 -9z"/>
<path d="M1230 5480 c-9 -6 -10 -10 -3 -10 6 0 15 5 18 10 8 12 4 12 -15 0z"/>
<path d="M1315 5481 c-3 -5 0 -13 6 -17 8 -5 9 -3 4 6 -6 10 -4 12 9 7 10 -4 15 -3 11 3 -8 13 -22 13 -30 1z"/>
<path d="M1215 5449 c-4 -6 -5 -12 -2 -15 2 -3 7 2 10 11 7 17 1 20 -8 4z"/>
<path d="M1360 5438 c0 -6 3 -8 7 -4 10 9 93 -75 86 -87 -3 -6 -1 -7 6 -3 6 4 14 0 17 -8 3 -9 11 -16 17 -16 6 0 -18 29 -53 65 -64 65 -80 75 -80 53z"/>
<path d="M1210 5411 c0 -6 4 -13 10 -16 6 -3 7 1 4 9 -7 18 -14 21 -14 7z"/>
<path d="M1230 5373 c0 -5 12 -20 28 -34 l27 -24 -25 30 c-14 17 -26 32 -27 34 -2 2 -3 0 -3 -6z"/>
<path d="M1290 5313 c0 -5 10 -18 23 -29 l22 -19 -20 25 c-11 14 -21 27 -22 29 -2 2 -3 0 -3 -6z"/>
<path d="M1542 5271 c13 -16 32 -34 43 -41 11 -7 2 6 -20 29 -45 48 -57 54 -23 12z"/>
<path d="M1348 5255 c6 -11 21 -29 34 -40 22 -19 22 -19 -2 10 -40 48 -43 51 -32 30z"/>
<path d="M1650 5186 c0 -2 9 -6 20 -9 11 -3 18 -1 14 4 -5 9 -34 13 -34 5z"/>
<path d="M1430 5168 c0 -2 13 -16 28 -31 21 -20 29 -23 29 -12 0 8 -5 15 -10 15 -6 0 -19 7 -29 17 -10 9 -18 14 -18 11z"/>
<path d="M1710 5146 c0 -2 8 -10 18 -17 15 -13 16 -12 3 4 -13 16 -21 21 -21 13z"/>
<path d="M1567 5048 c9 -10 21 -18 27 -18 6 0 5 4 -3 9 -7 5 -11 13 -8 18 3 5 -3 9 -13 9 -18 0 -18 -2 -3 -18z"/>
<path d="M1786 4901 c-3 -4 6 -6 19 -3 14 2 25 6 25 8 0 8 -39 4 -44 -5z"/>
<path d="M1735 4849 c-4 -6 -5 -12 -2 -15 2 -3 7 2 10 11 7 17 1 20 -8 4z"/>
<path d="M1702 4580 c-6 -11 -12 -23 -12 -27 0 -5 5 0 11 10 6 9 14 15 20 12 5 -3 6 1 3 9 -8 20 -7 20 -22 -4z"/>
<path d="M1876 4563 c-6 -14 -5 -15 5 -6 7 7 10 15 7 18 -3 3 -9 -2 -12 -12z"/>
<path d="M1856 4523 c-6 -14 -5 -15 5 -6 7 7 10 15 7 18 -3 3 -9 -2 -12 -12z"/>
<path d="M1820 4465 c-13 -14 -30 -23 -37 -21 -7 3 -10 -1 -7 -8 7 -19 -23 -28 -49 -15 -21 10 -21 10 -3 -5 11 -9 24 -16 28 -16 10 0 106 89 97 90 -3 0 -16 -11 -29 -25z"/>
<path d="M1670 4471 c0 -6 4 -13 10 -16 6 -3 7 1 4 9 -7 18 -14 21 -14 7z"/>
<path d="M1606 4301 c-3 -4 6 -6 19 -3 14 2 25 6 25 8 0 8 -39 4 -44 -5z"/>
<path d="M1580 4265 c0 -8 2 -15 4 -15 2 0 6 7 10 15 3 8 1 15 -4 15 -6 0 -10 -7 -10 -15z"/>
<path d="M1539 4230 c-15 -17 -23 -30 -19 -30 7 0 32 26 44 48 11 19 3 14 -25 -18z"/>
<path d="M1475 4179 c-4 -6 -4 -13 -1 -16 3 -4 6 -1 6 6 0 8 6 11 16 7 8 -3 12 -2 9 4 -8 13 -22 13 -30 -1z"/>
<path d="M1666 4132 l-19 -27 24 22 c12 12 21 24 18 27 -2 2 -13 -8 -23 -22z"/>
<path d="M1395 4120 c-3 -6 1 -7 9 -4 18 7 21 14 7 14 -6 0 -13 -4 -16 -10z"/>
<path d="M1205 4080 c-3 -6 1 -7 9 -4 18 7 21 14 7 14 -6 0 -13 -4 -16 -10z"/>
<path d="M1580 4078 c0 -5 5 -6 12 -2 8 5 9 2 4 -11 -7 -18 -6 -18 14 0 11 10 20 19 20 19 0 1 -11 2 -25 2 -14 1 -25 -2 -25 -8z"/>
<path d="M1539 4048 c-5 -18 -6 -38 -1 -34 7 8 12 36 6 36 -2 0 -4 -1 -5 -2z"/>
<path d="M1155 4029 c-4 -6 -5 -12 -2 -15 2 -3 7 2 10 11 7 17 1 20 -8 4z"/>
<path d="M925 4020 c-3 -6 1 -7 9 -4 18 7 21 14 7 14 -6 0 -13 -4 -16 -10z"/>
<path d="M1485 4000 c-11 -5 -15 -9 -10 -9 6 -1 3 -6 -5 -11 -8 -5 -10 -10 -4 -10 6 0 19 9 29 20 20 22 19 23 -10 10z"/>
<path d="M1150 3991 c0 -6 4 -13 10 -16 6 -3 7 1 4 9 -7 18 -14 21 -14 7z"/>
<path d="M1435 3981 c4 -8 2 -17 -6 -22 -9 -6 -10 -9 -2 -9 19 0 27 21 13 33 -10 9 -11 9 -5 -2z"/>
<path d="M815 3959 c-4 -6 -4 -13 -1 -16 3 -4 6 -1 6 6 0 8 6 11 16 7 8 -3 12 -2 9 4 -8 13 -22 13 -30 -1z"/>
<path d="M1355 3961 c4 -8 2 -17 -6 -22 -9 -6 -10 -9 -2 -9 19 0 27 21 13 33 -10 9 -11 9 -5 -2z"/>
<path d="M1197 3939 c7 -7 15 -10 18 -7 3 3 -2 9 -12 12 -14 6 -15 5 -6 -5z"/>
<path d="M1076 3923 c-6 -14 -5 -15 5 -6 7 7 10 15 7 18 -3 3 -9 -2 -12 -12z"/>
<path d="M756 3921 c-4 -5 3 -7 14 -4 23 6 26 13 6 13 -8 0 -17 -4 -20 -9z"/>
<path d="M1030 3880 c-9 -6 -10 -10 -3 -10 6 0 15 5 18 10 8 12 4 12 -15 0z"/>
<path d="M957 3857 c3 -5 -1 -13 -8 -18 -8 -5 -9 -9 -3 -9 6 0 18 8 27 18 15 16 15 18 -3 18 -10 0 -16 -4 -13 -9z"/>
<path d="M690 3791 c0 -6 4 -13 10 -16 6 -3 7 1 4 9 -7 18 -14 21 -14 7z"/>
<path d="M830 3775 c-7 -9 -19 -14 -26 -11 -8 3 -11 0 -8 -8 7 -19 -23 -28 -49 -15 -21 10 -21 10 -3 -5 11 -9 24 -16 28 -16 10 0 86 69 77 70 -4 0 -12 -7 -19 -15z"/>
<path d="M706 3621 c-3 -4 6 -6 19 -3 14 2 25 6 25 8 0 8 -39 4 -44 -5z"/>
<path d="M754 3598 c-5 -7 -3 -8 5 -4 7 5 22 0 34 -11 l22 -18 -19 23 c-21 25 -32 27 -42 10z"/>
<path d="M655 3569 c-4 -6 -5 -12 -2 -15 2 -3 7 2 10 11 7 17 1 20 -8 4z"/>
<path d="M650 3511 c0 -6 4 -13 10 -16 6 -3 7 1 4 9 -7 18 -14 21 -14 7z"/>
<path d="M711 3430 c-1 -8 11 -28 25 -45 l26 -30 -20 30 c-10 17 -22 37 -25 45 -5 13 -6 13 -6 0z"/>
<path d="M920 3366 c0 -2 7 -7 16 -10 8 -3 12 -2 9 4 -6 10 -25 14 -25 6z"/>
<path d="M770 3333 c0 -5 10 -18 23 -29 l22 -19 -20 25 c-11 14 -21 27 -22 29 -2 2 -3 0 -3 -6z"/>
<path d="M810 3271 c0 -6 4 -13 10 -16 6 -3 7 1 4 9 -7 18 -14 21 -14 7z"/>
<path d="M1010 3246 c0 -2 9 -6 20 -9 11 -3 18 -1 14 4 -5 9 -34 13 -34 5z"/>
<path d="M830 3216 c0 -8 4 -17 9 -20 5 -4 7 3 4 14 -6 23 -13 26 -13 6z"/>
<path d="M1069 3208 c7 -10 11 -31 9 -47 -2 -17 -1 -28 4 -25 15 9 8 61 -9 75 -16 13 -17 12 -4 -3z"/>
<path d="M874 3173 c2 -9 8 -18 15 -19 6 -1 7 0 1 3 -5 2 -8 9 -5 13 3 5 1 11 -4 14 -5 4 -8 -2 -7 -11z"/>
<path d="M926 3129 c9 -10 22 -19 28 -18 6 0 6 3 -2 6 -6 2 -10 8 -7 13 3 4 -5 10 -16 13 -20 5 -20 5 -3 -14z"/>
<path d="M974 3118 c-4 -6 1 -17 11 -25 24 -17 27 -16 51 3 18 15 18 15 -3 5 -26 -13 -56 -4 -49 15 7 17 0 18 -10 2z"/>
<path d="M1346 3101 c-3 -4 6 -6 19 -3 14 2 25 6 25 8 0 8 -39 4 -44 -5z"/>
<path d="M1400 3072 c0 -5 7 -9 15 -9 8 0 12 4 9 9 -3 4 -9 8 -15 8 -5 0 -9 -4 -9 -8z"/>
<path d="M1295 3049 c-4 -6 -5 -12 -2 -15 2 -3 7 2 10 11 7 17 1 20 -8 4z"/>
<path d="M1500 3023 c8 -3 22 -11 30 -17 13 -10 13 -9 1 7 -7 9 -21 17 -30 16 -13 0 -14 -1 -1 -6z"/>
<path d="M1290 2991 c0 -6 4 -13 10 -16 6 -3 7 1 4 9 -7 18 -14 21 -14 7z"/>
<path d="M1340 2936 c7 -7 13 -7 20 0 6 6 3 10 -10 10 -13 0 -16 -4 -10 -10z"/>
<path d="M1624 2913 c12 -15 17 -32 14 -52 -2 -17 -1 -28 4 -25 17 11 8 61 -14 80 l-23 19 19 -22z"/>
<path d="M1410 2911 c0 -6 4 -13 10 -16 6 -3 7 1 4 9 -7 18 -14 21 -14 7z"/>
<path d="M1535 2803 c31 -27 35 -28 61 -7 18 15 18 15 -3 5 -25 -13 -56 -4 -50 13 3 7 -4 12 -15 12 -18 0 -17 -3 7 -23z"/>
<path d="M1726 2621 c-3 -4 6 -6 19 -3 14 2 25 6 25 8 0 8 -39 4 -44 -5z"/>
<path d="M1675 2569 c-4 -6 -5 -12 -2 -15 2 -3 7 2 10 11 7 17 1 20 -8 4z"/>
<path d="M1655 2249 c-4 -6 -5 -12 -2 -15 2 -3 7 2 10 11 7 17 1 20 -8 4z"/>
<path d="M1650 2211 c0 -6 4 -13 10 -16 6 -3 7 1 4 9 -7 18 -14 21 -14 7z"/>
<path d="M1816 2203 c-6 -14 -5 -15 5 -6 7 7 10 15 7 18 -3 3 -9 -2 -12 -12z"/>
<path d="M1697 2159 c7 -7 15 -10 18 -7 3 3 -2 9 -12 12 -14 6 -15 5 -6 -5z"/>
<path d="M1770 2160 c-9 -6 -10 -10 -3 -10 6 0 15 5 18 10 8 12 4 12 -15 0z"/>
<path d="M1465 2100 c-3 -6 1 -7 9 -4 18 7 21 14 7 14 -6 0 -13 -4 -16 -10z"/>
<path d="M1360 2026 c0 -2 7 -7 16 -10 8 -3 12 -2 9 4 -6 10 -25 14 -25 6z"/>
<path d="M1566 1992 l-19 -27 24 22 c12 12 21 24 18 27 -2 2 -13 -8 -23 -22z"/>
<path d="M1318 1991 c-14 -16 -14 -20 -2 -25 7 -3 13 -2 13 2 -3 18 2 32 12 32 5 0 7 -5 3 -12 -4 -7 -3 -8 5 -4 11 7 6 26 -7 26 -4 0 -15 -9 -24 -19z"/>
<path d="M1175 1939 c-4 -6 -4 -13 -1 -16 3 -4 6 -1 6 6 0 8 6 11 16 7 8 -3 12 -2 9 4 -8 13 -22 13 -30 -1z"/>
<path d="M1065 1920 c-3 -6 1 -7 9 -4 18 7 21 14 7 14 -6 0 -13 -4 -16 -10z"/>
<path d="M1474 1908 c0 -16 2 -16 18 -1 10 9 18 17 18 17 0 1 -8 2 -18 2 -10 0 -18 -8 -18 -18z"/>
<path d="M1015 1869 c-4 -6 -5 -12 -2 -15 2 -3 7 2 10 11 7 17 1 20 -8 4z"/>
<path d="M1354 1828 c0 -16 2 -16 18 -1 10 9 18 17 18 17 0 1 -8 2 -18 2 -10 0 -18 -8 -18 -18z"/>
<path d="M1010 1831 c0 -6 4 -13 10 -16 6 -3 7 1 4 9 -7 18 -14 21 -14 7z"/>
<path d="M1217 1797 c3 -5 -1 -13 -8 -18 -8 -5 -9 -9 -3 -9 6 0 18 8 27 18 15 16 15 18 -3 18 -10 0 -16 -4 -13 -9z"/>
<path d="M1057 1779 c7 -7 15 -10 18 -7 3 3 -2 9 -12 12 -14 6 -15 5 -6 -5z"/>
<path d="M766 1701 c-3 -4 6 -6 19 -3 14 2 25 6 25 8 0 8 -39 4 -44 -5z"/>
<path d="M715 1649 c-4 -6 -5 -12 -2 -15 2 -3 7 2 10 11 7 17 1 20 -8 4z"/>
<path d="M872 1496 c7 -8 15 -12 17 -11 5 6 -10 25 -20 25 -5 0 -4 -6 3 -14z"/>
<path d="M710 1471 c0 -6 4 -13 10 -16 6 -3 7 1 4 9 -7 18 -14 21 -14 7z"/>
<path d="M730 1371 c0 -6 4 -13 10 -16 6 -3 7 1 4 9 -7 18 -14 21 -14 7z"/>
<path d="M876 1363 c-6 -14 -5 -15 5 -6 7 7 10 15 7 18 -3 3 -9 -2 -12 -12z"/>
<path d="M830 1320 c-9 -6 -10 -10 -3 -10 6 0 15 5 18 10 8 12 4 12 -15 0z"/>
<path d="M1045 1280 c-3 -6 1 -7 9 -4 18 7 21 14 7 14 -6 0 -13 -4 -16 -10z"/>
<path d="M1098 1283 c7 -3 16 -2 19 1 4 3 -2 6 -13 5 -11 0 -14 -3 -6 -6z"/>
<path d="M1167 1240 c12 -5 26 -17 32 -27 6 -10 11 -13 11 -7 0 15 -34 44 -51 43 -8 0 -4 -4 8 -9z"/>
<path d="M995 1229 c-4 -6 -5 -12 -2 -15 2 -3 7 2 10 11 7 17 1 20 -8 4z"/>
<path d="M990 1191 c0 -6 4 -13 10 -16 6 -3 7 1 4 9 -7 18 -14 21 -14 7z"/>
<path d="M1241 1187 c2 -1 13 -9 24 -17 19 -14 19 -14 6 3 -7 9 -18 17 -24 17 -6 0 -8 -1 -6 -3z"/>
<path d="M1034 1153 c2 -9 9 -19 17 -21 8 -3 25 -14 39 -26 l25 -21 -24 28 c-14 15 -31 27 -38 27 -8 0 -12 4 -8 9 3 5 1 12 -4 15 -5 4 -8 -2 -7 -11z"/>
<path d="M1318 1143 c7 -3 16 -2 19 1 4 3 -2 6 -13 5 -11 0 -14 -3 -6 -6z"/>
<path d="M1137 1059 c7 -7 15 -10 18 -7 3 3 -2 9 -12 12 -14 6 -15 5 -6 -5z"/>
<path d="M1456 1023 c-6 -14 -5 -15 5 -6 7 7 10 15 7 18 -3 3 -9 -2 -12 -12z"/>
<path d="M1227 1008 c9 -10 21 -18 27 -18 6 0 5 4 -3 9 -7 5 -11 13 -8 18 3 5 -3 9 -13 9 -18 0 -18 -2 -3 -18z"/>
<path d="M1295 1000 c-8 -13 3 -30 18 -30 8 0 7 3 -2 9 -7 5 -10 14 -7 20 4 6 5 11 2 11 -3 0 -8 -4 -11 -10z"/>
<path d="M1410 980 c-9 -6 -10 -10 -3 -10 6 0 15 5 18 10 8 12 4 12 -15 0z"/>
<path d="M1606 942 c-3 -5 8 -6 25 -4 16 2 29 6 29 8 0 8 -49 4 -54 -4z"/>
<path d="M1655 921 c-3 -5 0 -13 6 -17 8 -5 9 -3 4 6 -6 10 -4 12 9 7 10 -4 15 -3 11 3 -8 13 -22 13 -30 1z"/>
<path d="M1555 889 c-4 -6 -5 -12 -2 -15 2 -3 7 2 10 11 7 17 1 20 -8 4z"/>
<path d="M1716 877 c3 -10 9 -15 12 -12 3 3 0 11 -7 18 -10 9 -11 8 -5 -6z"/>
<path d="M1550 851 c0 -6 4 -13 10 -16 6 -3 7 1 4 9 -7 18 -14 21 -14 7z"/>
<path d="M1570 531 c0 -6 4 -13 10 -16 6 -3 7 1 4 9 -7 18 -14 21 -14 7z"/>
<path d="M1716 523 c-6 -14 -5 -15 5 -6 7 7 10 15 7 18 -3 3 -9 -2 -12 -12z"/>
<path d="M1670 480 c-9 -6 -10 -10 -3 -10 6 0 15 5 18 10 8 12 4 12 -15 0z"/>
<path d="M1526 441 c-3 -4 6 -6 19 -3 14 2 25 6 25 8 0 8 -39 4 -44 -5z"/>
<path d="M1475 389 c-4 -6 -5 -12 -2 -15 2 -3 7 2 10 11 7 17 1 20 -8 4z"/>
<path d="M1616 283 c-6 -14 -5 -15 5 -6 7 7 10 15 7 18 -3 3 -9 -2 -12 -12z"/>
<path d="M1439 273 c-13 -16 -12 -17 4 -4 16 13 21 21 13 21 -2 0 -10 -8 -17 -17z"/>
<path d="M1580 210 c-6 -11 -16 -17 -22 -14 -7 4 -8 3 -4 -5 4 -6 12 -9 17 -6 11 7 32 45 25 45 -3 0 -10 -9 -16 -20z"/>
<path d="M1375 80 c-3 -6 1 -7 9 -4 18 7 21 14 7 14 -6 0 -13 -4 -16 -10z"/>
<path d="M1341 37 c-13 -21 -12 -21 5 -5 10 10 16 20 13 22 -3 3 -11 -5 -18 -17z"/>
<path d="M1526 32 l-19 -27 24 22 c12 12 21 24 18 27 -2 2 -13 -8 -23 -22z"/>
</g>
</g>
  <g id="id1:id1" transform="matrix(1.25,0,0,1.25,0.0,0.0)"><g transform="translate(0.000000,236.800000) scale(0.040000,-0.040000)" fill="#ffffff" stroke="none">
<path d="M0 2960 l0 -2960 663 0 662 0 13 30 c15 32 32 40 32 14 0 -8 -4 -12 -10 -9 -5 3 -10 -3 -10 -14 0 -29 13 -26 27 6 9 18 10 30 2 39 -7 8 -7 14 1 19 5 3 10 35 10 71 0 36 4 64 10 64 15 0 13 -137 -2 -143 -7 -2 -10 -8 -6 -12 4 -4 14 0 23 8 18 18 22 142 5 152 -7 4 -8 11 -2 18 26 32 52 91 52 117 0 16 4 32 10 35 6 4 10 -10 10 -34 0 -23 -4 -41 -10 -41 -5 0 -10 -12 -10 -26 0 -14 -4 -23 -10 -19 -5 3 -10 -3 -10 -14 0 -12 3 -21 8 -21 8 0 32 49 32 67 0 7 4 13 9 13 6 0 11 19 13 43 3 41 4 42 41 45 l37 3 0 -65 c0 -36 -5 -68 -10 -71 -5 -3 -10 -14 -10 -23 0 -10 -13 -33 -30 -52 -25 -30 -29 -43 -30 -94 0 -47 -5 -65 -22 -83 -12 -13 -16 -23 -10 -23 7 0 12 5 12 12 0 9 3 9 12 0 9 -9 182 -12 715 -12 l703 0 0 2960 0 2960 -805 0 -805 0 0 -69 c0 -39 -4 -73 -10 -76 -6 -4 -10 22 -10 69 0 44 -4 76 -10 76 -14 0 -13 -317 1 -326 6 -3 9 -24 7 -45 -3 -32 0 -39 14 -39 10 0 18 -4 18 -10 0 -5 -12 -10 -27 -10 -28 0 -28 1 -25 55 3 35 0 55 -7 55 -7 0 -11 30 -11 85 0 50 -4 85 -10 85 -6 0 -10 -35 -10 -85 0 -50 4 -85 10 -85 6 0 10 -20 10 -45 0 -43 -1 -45 -28 -45 -15 0 -33 -5 -40 -12 -9 -9 -19 -5 -42 17 l-31 30 3 187 3 188 -557 0 -558 0 0 -2960z m1245 2520 c-3 -5 -19 -10 -36 -10 -16 0 -29 5 -29 10 0 6 16 10 36 10 21 0 33 -4 29 -10z m99 1 c4 -5 1 -11 -6 -13 -7 -3 -8 -10 -4 -17 7 -11 10 -11 17 0 6 10 46 -24 146 -124 93 -92 145 -137 160 -137 12 0 25 -4 28 -10 3 -5 -1 -10 -9 -10 -9 0 -16 -4 -16 -10 0 -6 9 -6 26 1 15 5 27 8 28 7 0 -2 7 -14 14 -27 8 -12 10 -21 5 -18 -5 3 -7 -12 -5 -34 l4 -39 -40 0 c-23 0 -44 -4 -47 -10 -4 -6 12 -10 40 -10 28 0 44 -4 40 -10 -3 -5 -21 -10 -40 -10 -19 0 -37 5 -40 10 -3 6 -18 10 -33 10 -35 1 -109 67 -93 83 8 8 11 6 11 -7 0 -9 5 -14 10 -11 6 3 10 -1 10 -9 0 -9 5 -16 10 -16 17 0 11 13 -22 47 -33 34 -48 41 -48 22 0 -5 5 -7 10 -4 6 3 10 -1 10 -9 0 -25 -22 -18 -62 19 -21 20 -38 37 -38 39 0 2 -16 20 -34 38 -25 25 -33 41 -29 56 5 23 -22 60 -35 47 -4 -4 -1 -10 6 -12 6 -3 12 -14 12 -25 0 -18 -7 -15 -45 23 -64 62 -93 127 -65 144 6 4 10 -8 10 -30 0 -22 4 -34 10 -30 6 4 10 -5 10 -20 0 -15 4 -24 10 -20 6 3 10 -1 10 -9 0 -9 5 -16 10 -16 14 0 13 4 -10 45 -30 54 -27 84 10 92 17 3 33 10 36 14 7 12 21 11 28 0z m426 -396 c0 -13 -4 -27 -10 -30 -6 -4 -10 8 -10 30 0 22 4 34 10 30 6 -3 10 -17 10 -30z m65 -185 c4 -6 -7 -10 -25 -10 -18 0 -29 4 -25 10 3 6 15 10 25 10 10 0 22 -4 25 -10z m15 -180 c0 -101 -4 -157 -12 -170 -10 -15 -10 -22 0 -32 9 -9 12 -6 12 16 0 15 4 25 10 21 7 -4 10 48 10 150 0 102 3 154 10 150 6 -4 10 -63 10 -144 0 -127 -2 -141 -26 -188 -23 -47 -92 -123 -112 -123 -5 0 -17 7 -28 15 -18 13 -17 14 19 15 23 0 36 4 32 10 -3 6 -19 10 -36 10 -27 0 -29 3 -29 35 0 19 5 35 10 35 6 0 10 10 10 23 0 13 9 33 20 45 18 19 20 35 20 145 0 68 3 127 7 130 3 4 21 7 40 7 l33 0 0 -150z m-110 -118 c-5 -2 -10 -10 -10 -18 0 -9 -4 -12 -10 -9 -6 4 -10 -7 -10 -24 0 -17 -4 -31 -10 -31 -5 0 -10 -16 -10 -36 0 -21 -4 -33 -10 -29 -5 3 -10 17 -10 30 0 13 5 27 10 30 6 3 10 16 10 29 0 12 9 32 20 44 18 19 20 35 20 140 0 65 3 122 8 126 4 4 8 -50 10 -121 2 -81 -1 -129 -8 -131z m-85 -302 c4 -6 -7 -10 -25 -10 -18 0 -29 4 -25 10 3 6 15 10 25 10 10 0 22 -4 25 -10z m-62 -37 c-6 -16 -5 -16 10 -5 9 8 26 12 39 10 18 -2 24 -10 26 -37 2 -18 -1 -38 -7 -44 -6 -6 -11 -18 -11 -27 0 -9 -9 -25 -20 -35 -22 -20 -26 -35 -10 -35 6 0 10 7 10 16 0 8 5 12 10 9 6 -3 10 1 10 10 0 9 5 13 10 10 6 -4 10 7 10 25 0 18 4 29 10 25 6 -4 10 10 10 35 0 25 4 39 10 35 6 -3 10 -19 10 -35 0 -16 -4 -32 -10 -35 -5 -3 -10 -14 -10 -23 0 -23 -90 -112 -113 -112 -14 0 -17 5 -12 20 4 11 2 20 -4 20 -9 0 -16 -37 -12 -63 1 -4 -10 -12 -23 -17 -13 -5 -27 -13 -30 -19 -11 -17 -68 -41 -97 -41 -15 0 -31 -4 -34 -10 -3 -5 -42 -10 -85 -10 -43 0 -82 5 -85 10 -4 6 25 10 80 10 55 0 84 4 80 10 -3 6 -42 10 -86 10 l-79 0 0 29 c0 38 17 50 74 52 70 3 67 19 -4 19 -38 0 -59 4 -55 10 3 6 30 10 60 10 30 0 57 5 60 10 3 6 19 10 34 10 15 0 31 4 37 9 5 6 26 12 48 14 21 3 42 11 47 18 12 20 1 25 -14 6 -7 -10 -17 -14 -25 -8 -9 5 -1 16 30 35 24 15 53 40 65 54 l23 27 0 -23 c0 -13 -4 -20 -10 -17 -6 4 -10 -5 -10 -20 0 -15 -4 -24 -10 -20 -5 3 -10 1 -10 -4 0 -13 3 -13 24 -5 9 3 16 14 16 24 0 11 5 22 10 25 6 3 7 17 4 31 -4 14 -2 24 5 24 6 0 8 -8 4 -17z m-423 -259 c0 -21 -4 -33 -10 -29 -17 10 -11 65 7 65 2 0 3 -16 3 -36z m-135 16 c4 -6 -17 -10 -55 -10 -38 0 -59 4 -55 10 3 6 28 10 55 10 27 0 52 -4 55 -10z m13 -68 c2 -24 -2 -38 -15 -48 -17 -13 -17 -13 0 -14 27 0 10 -20 -17 -20 -13 0 -31 -9 -41 -20 -11 -12 -31 -20 -49 -20 -23 0 -42 -12 -76 -46 -59 -60 -74 -68 -102 -52 -22 12 -21 13 15 16 43 4 40 22 -4 22 -27 0 -29 3 -29 35 0 19 5 35 11 35 8 0 9 11 5 33 -4 20 -3 27 3 18 6 -10 10 -10 16 -1 4 7 2 15 -4 19 -7 5 8 21 41 43 52 36 54 36 148 35 l95 -2 3 -33z m42 -7 c0 -13 -4 -27 -10 -30 -6 -4 -10 8 -10 30 0 22 4 34 10 30 6 -3 10 -17 10 -30z m-369 -103 c-6 -2 -11 -19 -11 -38 0 -21 -4 -33 -10 -29 -15 9 -12 38 7 76 14 28 18 31 21 14 3 -10 -1 -21 -7 -23z m59 -240 c22 -19 30 -31 22 -36 -7 -4 -12 -1 -12 8 0 9 -7 16 -15 16 -20 0 -19 -6 7 -30 17 -15 24 -17 30 -8 4 7 5 -2 2 -19 -4 -22 -3 -33 5 -33 6 0 11 -11 11 -25 0 -14 5 -25 10 -25 6 0 10 -6 10 -13 0 -7 9 -18 20 -25 11 -7 20 -20 20 -30 0 -9 9 -23 20 -30 11 -7 20 -21 20 -32 0 -11 5 -20 10 -20 6 0 10 -7 10 -16 0 -15 37 -53 53 -54 4 0 7 5 7 12 0 6 -3 8 -7 5 -10 -10 -33 13 -33 33 0 10 -5 20 -11 22 -6 2 -9 13 -7 23 3 16 7 14 21 -15 10 -20 31 -44 48 -54 24 -14 28 -21 18 -27 -11 -6 -11 -11 -1 -21 6 -6 12 -27 12 -45 0 -30 -3 -33 -29 -33 -44 0 -47 -18 -4 -22 36 -3 37 -4 16 -16 -19 -10 -28 -9 -63 9 -22 12 -43 25 -46 31 -3 5 -16 13 -28 18 -16 6 -22 17 -24 46 -3 44 -24 95 -47 114 -8 7 -15 18 -15 25 0 6 -9 20 -20 30 -11 10 -20 24 -20 32 0 7 -4 13 -10 13 -5 0 -10 -9 -10 -21 0 -11 5 -17 10 -14 6 3 10 -1 10 -10 0 -9 5 -13 10 -10 6 4 10 -5 10 -20 0 -15 4 -24 10 -20 6 3 10 -1 10 -10 0 -9 5 -13 10 -10 6 4 10 -5 10 -20 0 -15 4 -24 10 -20 6 4 10 -8 10 -30 0 -22 -4 -34 -10 -30 -5 3 -10 14 -10 24 0 23 -26 75 -45 91 -8 7 -15 18 -15 24 -1 6 -14 27 -30 46 -17 19 -30 41 -30 50 0 9 -5 21 -11 27 -5 5 -9 37 -7 69 3 54 5 59 28 62 40 6 48 22 11 22 -19 0 -30 4 -26 10 11 18 40 11 75 -18z m-110 -68 c0 -27 -4 -43 -10 -39 -17 11 -11 85 7 85 2 0 3 -21 3 -46z m180 -20 c0 -8 5 -14 10 -14 6 0 10 -9 10 -20 0 -12 9 -30 20 -42 10 -12 16 -26 12 -32 -4 -7 -8 -4 -10 7 -2 9 -8 15 -13 12 -5 -4 -9 1 -9 9 0 9 -4 16 -10 16 -5 0 -10 11 -10 25 0 14 -4 25 -10 25 -5 0 -10 9 -10 21 0 11 5 17 10 14 6 -3 10 -13 10 -21z m94 -166 c-8 -12 -34 18 -34 39 0 15 3 14 19 -7 11 -13 17 -28 15 -32z m134 -140 c15 -15 16 -64 2 -73 -6 -4 -10 10 -10 35 0 25 -4 39 -10 35 -5 -3 -10 -1 -10 4 0 14 13 14 28 -1z m317 -108 c4 -6 -7 -10 -25 -10 -18 0 -29 4 -25 10 3 6 15 10 25 10 10 0 22 -4 25 -10z m21 -28 c-3 -5 5 -8 17 -8 12 1 21 -4 20 -10 -1 -7 6 -10 16 -7 14 3 42 -17 100 -72 64 -61 81 -84 81 -106 0 -15 -4 -31 -10 -34 -6 -4 -10 10 -10 35 0 25 -4 39 -10 35 -5 -3 -10 -22 -10 -41 0 -31 -3 -34 -29 -34 -44 0 -47 -18 -4 -22 37 -3 37 -3 15 -16 -25 -14 -34 -11 -87 36 -28 25 -35 36 -26 45 8 8 11 6 11 -7 0 -9 5 -14 10 -11 6 3 10 -1 10 -9 0 -9 5 -16 10 -16 18 0 10 14 -32 57 -42 43 -58 52 -58 32 0 -5 5 -7 10 -4 6 3 10 -1 10 -9 0 -18 -25 -22 -35 -6 -3 6 -14 10 -23 10 -9 0 -28 9 -42 20 -22 17 -22 20 -6 20 15 0 16 2 6 15 -10 12 -15 13 -21 3 -7 -11 -2 62 6 89 2 6 19 13 37 16 18 2 37 5 41 5 5 1 6 -2 3 -6z m-106 -58 c0 -27 -4 -43 -10 -39 -17 11 -11 85 7 85 2 0 3 -21 3 -46z m156 -141 c-10 -10 -19 5 -10 18 6 11 8 11 12 0 2 -7 1 -15 -2 -18z m309 -253 c4 -6 -7 -10 -25 -10 -18 0 -29 4 -25 10 3 6 15 10 25 10 10 0 22 -4 25 -10z m15 -230 l0 -200 -50 0 c-49 0 -50 1 -50 29 0 17 5 33 10 36 6 4 10 70 10 164 0 87 3 161 7 164 3 4 21 7 40 7 l33 0 0 -200z m-100 24 c0 -107 -3 -163 -10 -159 -6 4 -10 -8 -10 -30 0 -22 -4 -34 -10 -30 -5 3 -10 17 -10 30 0 13 5 27 10 30 6 4 10 68 10 159 0 134 3 166 17 166 2 0 3 -75 3 -166z m140 -29 c0 -112 -4 -186 -10 -190 -7 -4 -10 62 -10 190 0 128 3 194 10 190 6 -4 10 -78 10 -190z m-45 -225 c-3 -5 -24 -10 -45 -10 -21 0 -42 5 -45 10 -4 6 13 10 45 10 32 0 49 -4 45 -10z m-250 -60 c4 -6 -10 -10 -35 -10 -25 0 -39 4 -35 10 3 6 19 10 35 10 16 0 32 -4 35 -10z m13 -65 c2 -23 -4 -37 -28 -60 -31 -29 -38 -45 -20 -45 6 0 10 7 10 16 0 8 5 12 10 9 6 -3 10 1 10 10 0 9 5 13 10 10 6 -3 10 1 10 10 0 9 5 13 10 10 6 -4 10 8 10 30 0 22 4 34 10 30 6 -3 10 -16 10 -29 0 -29 -106 -136 -135 -136 -12 0 -39 -18 -60 -40 -36 -36 -44 -40 -90 -40 -39 0 -56 -5 -70 -20 -15 -17 -31 -20 -96 -20 -43 0 -81 5 -84 10 -4 6 25 10 80 10 55 0 84 4 80 10 -3 6 -42 10 -86 10 l-79 0 0 28 c0 35 16 52 51 52 15 0 31 5 34 10 4 6 -10 10 -35 10 -25 0 -39 4 -35 10 3 6 27 10 53 10 31 0 55 7 72 20 15 12 41 20 66 20 30 0 48 7 73 29 18 16 47 36 64 45 29 14 32 14 35 -1 2 -8 -2 -19 -10 -24 -7 -5 -8 -9 -3 -9 22 0 37 18 31 37 -6 19 -2 20 46 19 51 -1 53 -2 56 -31z m-518 -191 c0 -21 -4 -33 -10 -29 -17 10 -11 65 7 65 2 0 3 -16 3 -36z m-215 -144 c4 -6 -7 -10 -25 -10 -18 0 -29 4 -25 10 3 6 15 10 25 10 10 0 22 -4 25 -10z m15 -115 c0 -50 4 -85 10 -85 6 0 10 -32 10 -75 l0 -75 -40 0 -40 0 0 49 c0 28 -4 53 -10 56 -11 7 -14 198 -3 208 3 4 21 7 40 7 l33 0 0 -85z m-90 -130 c6 4 10 -16 10 -50 0 -35 -4 -54 -10 -50 -5 3 -10 26 -10 50 0 24 -4 47 -10 50 -12 7 -14 188 -2 199 4 4 8 -40 10 -99 2 -65 6 -103 12 -100z m130 125 c0 -38 5 -72 10 -75 6 -3 10 -37 10 -75 0 -38 -4 -72 -10 -75 -6 -4 -10 22 -10 69 0 44 -4 76 -10 76 -6 0 -10 34 -10 81 0 51 4 78 10 74 6 -3 10 -37 10 -75z m-25 -260 c-3 -5 -19 -10 -36 -10 -16 0 -29 5 -29 10 0 6 16 10 36 10 21 0 33 -4 29 -10z m275 -40 c0 -5 -18 -10 -41 -10 -24 0 -38 4 -34 10 3 6 22 10 41 10 19 0 34 -4 34 -10z m71 -47 c41 -31 47 -39 36 -52 -11 -14 -10 -14 6 -2 15 12 20 11 40 -8 13 -11 33 -21 45 -21 30 0 28 -17 -2 -22 -26 -5 -46 7 -46 29 0 7 -4 13 -10 13 -16 0 -11 -15 13 -38 21 -20 48 -24 63 -9 11 11 72 8 79 -3 4 -6 -8 -10 -29 -10 -43 0 -49 -17 -6 -18 42 -1 50 -9 50 -48 l0 -34 -59 0 c-33 0 -63 -4 -66 -10 -4 -6 18 -10 60 -10 42 0 64 -4 60 -10 -3 -5 -33 -10 -65 -10 -32 0 -62 5 -65 10 -3 6 -16 10 -29 10 -12 0 -35 14 -51 30 -16 17 -39 30 -51 30 -13 0 -26 5 -29 10 -3 6 1 10 10 10 9 0 14 4 10 10 -3 5 -12 7 -20 4 -10 -4 -12 0 -8 15 5 22 -23 59 -35 46 -4 -4 -1 -10 6 -12 6 -3 12 -14 12 -26 l0 -20 -22 20 c-13 11 -30 22 -38 25 -20 7 -26 84 -9 104 6 8 24 14 40 14 15 0 31 5 34 10 10 17 26 11 76 -27z m-181 -29 c0 -21 -4 -33 -10 -29 -17 10 -11 65 7 65 2 0 3 -16 3 -36z m460 -159 c0 -13 -4 -27 -10 -30 -6 -4 -10 8 -10 30 0 22 4 34 10 30 6 -3 10 -17 10 -30z m190 -105 c0 -5 -14 -10 -31 -10 -17 0 -28 4 -24 10 3 6 17 10 31 10 13 0 24 -4 24 -10z m24 -19 c4 -5 1 -11 -6 -13 -7 -3 -8 -10 -4 -17 7 -11 10 -11 18 0 7 11 8 9 4 -4 -3 -10 -6 -99 -6 -198 l0 -179 -40 0 -40 0 0 159 c0 96 -4 162 -10 166 -5 3 -10 20 -10 36 0 25 5 30 30 36 17 3 33 10 36 14 7 12 21 11 28 0z m-103 -86 c5 4 9 -59 9 -160 0 -108 -3 -164 -10 -160 -6 4 -10 68 -10 160 0 92 -4 156 -10 160 -12 7 -13 48 -2 59 4 4 8 -8 10 -28 2 -20 7 -34 13 -31z m149 -135 c0 -108 -4 -181 -10 -185 -7 -4 -10 60 -10 185 0 125 3 189 10 185 6 -4 10 -77 10 -185z m-45 -220 c-3 -5 -19 -10 -36 -10 -16 0 -29 5 -29 10 0 6 16 10 36 10 21 0 33 -4 29 -10z m-110 -40 c4 -6 -7 -10 -25 -10 -18 0 -29 4 -25 10 3 6 15 10 25 10 10 0 22 -4 25 -10z m55 -99 c0 -49 -34 -136 -64 -160 -12 -10 -16 -31 -16 -76 0 -49 -4 -66 -20 -80 -19 -17 -20 -17 -20 -1 0 9 5 14 10 11 6 -4 10 22 10 70 0 48 4 74 10 70 6 -3 10 1 10 10 0 9 5 13 10 10 6 -3 10 3 10 15 0 12 5 18 10 15 6 -4 10 7 10 25 0 18 4 29 10 25 6 -4 10 18 10 60 0 42 4 64 10 60 6 -3 10 -28 10 -54z"/>
<path d="M1350 5420 c0 -5 5 -10 10 -10 6 0 10 5 10 10 0 6 -4 10 -10 10 -5 0 -10 -4 -10 -10z"/>
<path d="M1394 5398 c3 -7 9 -21 12 -30 9 -25 24 -23 24 3 0 11 -4 17 -10 14 -5 -3 -10 1 -10 9 0 9 -5 16 -11 16 -6 0 -8 -6 -5 -12z"/>
<path d="M1455 5330 c8 -9 15 -22 15 -28 0 -7 5 -12 10 -12 6 0 10 7 10 15 0 8 -4 15 -10 15 -5 0 -10 6 -10 13 0 8 -7 14 -15 14 -13 0 -13 -2 0 -17z"/>
<path d="M1510 5278 c1 -20 29 -52 37 -43 5 4 2 10 -4 12 -7 3 -13 13 -13 24 0 10 -4 19 -10 19 -5 0 -10 -6 -10 -12z"/>
<path d="M1370 5260 c0 -5 5 -10 10 -10 6 0 10 -9 10 -20 0 -11 5 -20 10 -20 15 0 12 29 -4 46 -17 16 -26 18 -26 4z"/>
<path d="M1570 5222 c0 -10 63 -72 73 -72 4 0 7 5 7 11 0 5 -4 8 -8 5 -10 -6 -52 38 -52 54 0 6 -4 10 -10 10 -5 0 -10 -4 -10 -8z"/>
<path d="M1430 5189 c0 -11 5 -17 10 -14 6 3 10 -1 10 -9 0 -9 5 -16 11 -16 6 0 8 6 5 13 -3 6 -9 20 -12 30 -9 24 -24 22 -24 -4z"/>
<path d="M1690 5140 c0 -5 5 -10 10 -10 6 0 10 5 10 10 0 6 -4 10 -10 10 -5 0 -10 -4 -10 -10z"/>
<path d="M1584 5058 c-3 -4 9 -8 26 -8 17 0 29 4 25 9 -6 11 -44 10 -51 -1z"/>
<path d="M1810 4501 c0 -11 -4 -23 -10 -26 -5 -3 -10 -10 -10 -16 0 -5 5 -9 10 -9 6 0 10 7 10 16 0 8 5 12 10 9 6 -4 10 5 10 19 0 14 -4 26 -10 26 -5 0 -10 -9 -10 -19z"/>
<path d="M1505 4180 c3 -5 8 -10 11 -10 2 0 4 5 4 10 0 6 -5 10 -11 10 -5 0 -7 -4 -4 -10z"/>
<path d="M1410 4100 c0 -5 5 -10 10 -10 6 0 10 5 10 10 0 6 -4 10 -10 10 -5 0 -10 -4 -10 -10z"/>
<path d="M1324 4083 c11 -11 66 -12 66 -2 0 5 -16 9 -37 9 -20 0 -33 -3 -29 -7z"/>
<path d="M1502 4038 c-15 -15 -16 -28 -2 -28 6 0 10 7 10 16 0 8 5 12 10 9 6 -3 10 -1 10 4 0 14 -13 14 -28 -1z"/>
<path d="M1450 4000 c0 -5 5 -10 10 -10 6 0 10 5 10 10 0 6 -4 10 -10 10 -5 0 -10 -4 -10 -10z"/>
<path d="M1370 3980 c0 -5 5 -10 10 -10 6 0 10 5 10 10 0 6 -4 10 -10 10 -5 0 -10 -4 -10 -10z"/>
<path d="M1405 3980 c-3 -5 3 -10 15 -10 12 0 18 5 15 10 -3 6 -10 10 -15 10 -5 0 -12 -4 -15 -10z"/>
<path d="M845 3960 c3 -5 10 -10 16 -10 5 0 9 5 9 10 0 6 -7 10 -16 10 -8 0 -12 -4 -9 -10z"/>
<path d="M890 3960 c0 -5 5 -10 10 -10 6 0 10 5 10 10 0 6 -4 10 -10 10 -5 0 -10 -4 -10 -10z"/>
<path d="M816 3934 c-3 -8 -10 -12 -16 -9 -5 3 -10 1 -10 -4 0 -17 15 -13 35 9 10 11 13 20 8 20 -6 0 -14 -7 -17 -16z"/>
<path d="M982 3898 c-15 -15 -16 -28 -2 -28 6 0 10 7 10 16 0 8 5 12 10 9 6 -3 10 -1 10 4 0 14 -13 14 -28 -1z"/>
<path d="M882 3858 c-15 -15 -16 -28 -2 -28 6 0 10 7 10 16 0 8 5 12 10 9 6 -3 10 -1 10 4 0 14 -13 14 -28 -1z"/>
<path d="M925 3860 c-3 -5 3 -10 15 -10 12 0 18 5 15 10 -3 6 -10 10 -15 10 -5 0 -12 -4 -15 -10z"/>
<path d="M826 3813 c-3 -10 -9 -24 -12 -30 -3 -7 -1 -13 5 -13 6 0 11 7 11 16 0 8 5 12 10 9 6 -3 10 3 10 14 0 26 -15 28 -24 4z"/>
<path d="M710 3474 c0 -8 5 -12 10 -9 6 3 10 10 10 16 0 5 -4 9 -10 9 -5 0 -10 -7 -10 -16z"/>
<path d="M730 3430 c0 -18 4 -29 10 -25 6 3 10 15 10 25 0 10 -4 22 -10 25 -6 4 -10 -7 -10 -25z"/>
<path d="M890 3184 c0 -3 7 -12 15 -21 20 -19 32 -9 15 12 -12 15 -30 20 -30 9z"/>
<path d="M950 3140 c0 -5 5 -10 10 -10 6 0 10 5 10 10 0 6 -4 10 -10 10 -5 0 -10 -4 -10 -10z"/>
<path d="M1410 3040 c0 -5 5 -10 10 -10 6 0 10 5 10 10 0 6 -4 10 -10 10 -5 0 -10 -4 -10 -10z"/>
<path d="M1470 3020 c0 -5 5 -10 10 -10 6 0 10 5 10 10 0 6 -4 10 -10 10 -5 0 -10 -4 -10 -10z"/>
<path d="M1512 3001 c4 -11 87 -101 93 -101 3 0 5 8 5 17 0 9 -3 14 -6 10 -7 -7 -74 58 -74 73 0 5 -5 10 -11 10 -6 0 -9 -4 -7 -9z"/>
<path d="M1365 2940 c-3 -5 -1 -10 4 -10 6 0 11 5 11 10 0 6 -2 10 -4 10 -3 0 -8 -4 -11 -10z"/>
<path d="M1390 2940 c0 -5 5 -10 10 -10 6 0 10 5 10 10 0 6 -4 10 -10 10 -5 0 -10 -4 -10 -10z"/>
<path d="M1385 2020 c3 -5 8 -10 11 -10 2 0 4 5 4 10 0 6 -5 10 -11 10 -5 0 -7 -4 -4 -10z"/>
<path d="M1353 1998 c1 -7 -4 -12 -10 -10 -7 1 -13 -2 -13 -8 0 -16 15 -12 35 10 16 18 16 20 2 20 -10 0 -16 -6 -14 -12z"/>
<path d="M1205 1940 c3 -5 19 -10 36 -10 16 0 29 5 29 10 0 6 -16 10 -36 10 -21 0 -33 -4 -29 -10z"/>
<path d="M1290 1940 c0 -5 5 -10 10 -10 6 0 10 5 10 10 0 6 -4 10 -10 10 -5 0 -10 -4 -10 -10z"/>
<path d="M1176 1914 c-3 -8 -10 -12 -16 -9 -5 3 -10 1 -10 -4 0 -17 15 -13 35 9 10 11 13 20 8 20 -6 0 -14 -7 -17 -16z"/>
<path d="M1430 1920 c0 -5 5 -10 10 -10 6 0 10 5 10 10 0 6 -4 10 -10 10 -5 0 -10 -4 -10 -10z"/>
<path d="M1460 1920 c0 -5 5 -10 11 -10 5 0 7 5 4 10 -3 6 -8 10 -11 10 -2 0 -4 -4 -4 -10z"/>
<path d="M1375 1877 c-4 -10 -5 -21 -1 -24 10 -10 18 4 13 24 -4 17 -4 17 -12 0z"/>
<path d="M1242 1838 c-15 -15 -16 -28 -2 -28 6 0 10 7 10 16 0 8 5 12 10 9 6 -3 10 -1 10 4 0 14 -13 14 -28 -1z"/>
<path d="M1285 1840 c-4 -6 10 -10 35 -10 25 0 39 4 35 10 -3 6 -19 10 -35 10 -16 0 -32 -4 -35 -10z"/>
<path d="M1130 1240 c0 -5 5 -10 10 -10 6 0 10 5 10 10 0 6 -4 10 -10 10 -5 0 -10 -4 -10 -10z"/>
<path d="M1174 1218 c3 -7 9 -21 12 -30 4 -10 11 -18 16 -18 5 0 7 6 4 13 -3 6 -9 20 -12 30 -4 9 -11 17 -16 17 -5 0 -7 -6 -4 -12z"/>
<path d="M1050 1160 c0 -5 5 -10 10 -10 6 0 10 5 10 10 0 6 -4 10 -10 10 -5 0 -10 -4 -10 -10z"/>
<path d="M1170 1079 c0 -5 5 -7 10 -4 6 3 10 -1 10 -10 0 -9 5 -13 10 -10 6 3 10 -1 10 -9 0 -9 5 -16 10 -16 17 0 11 15 -13 38 -26 24 -37 28 -37 11z"/>
<path d="M1245 1020 c-3 -5 -1 -10 4 -10 6 0 11 5 11 10 0 6 -2 10 -4 10 -3 0 -8 -4 -11 -10z"/>
<path d="M1270 1020 c0 -5 5 -10 10 -10 6 0 10 5 10 10 0 6 -4 10 -10 10 -5 0 -10 -4 -10 -10z"/>
<path d="M1130 5724 c0 -127 3 -193 10 -189 6 3 10 -1 10 -9 0 -9 5 -16 10 -16 6 0 10 4 10 9 0 6 -4 13 -10 16 -6 4 -10 80 -10 196 0 119 -4 189 -10 189 -6 0 -10 -72 -10 -196z"/>
<path d="M1430 236 c0 -9 5 -16 10 -16 6 0 10 4 10 9 0 6 -4 13 -10 16 -5 3 -10 -1 -10 -9z"/>
</g>
</g>
  <g id="id2:id2" transform="matrix(1.25,0,0,1.25,0.0,0.0)"><g transform="translate(0.000000,236.800000) scale(0.040000,-0.040000)" fill="#fcfcfc" stroke="none">
<path d="M1114 5725 c0 -93 2 -133 3 -88 2 45 2 122 0 170 -1 48 -3 12 -3 -82z"/>
<path d="M1303 5840 c0 -25 2 -35 4 -22 2 12 2 32 0 45 -2 12 -4 2 -4 -23z"/>
<path d="M1263 5690 c0 -47 2 -66 4 -42 2 23 2 61 0 85 -2 23 -4 4 -4 -43z"/>
<path d="M1276 5575 c8 -37 14 -45 14 -19 0 10 -5 26 -10 34 -8 11 -9 7 -4 -15z"/>
<path d="M1351 5444 c0 -11 3 -14 6 -6 3 7 2 16 -1 19 -3 4 -6 -2 -5 -13z"/>
<path d="M1379 5427 c6 -8 7 -18 3 -22 -4 -5 -1 -5 6 -1 10 6 10 11 1 22 -6 8 -14 14 -16 14 -3 0 0 -6 6 -13z"/>
<path d="M1440 5360 c0 -5 5 -10 11 -10 5 0 7 5 4 10 -3 6 -8 10 -11 10 -2 0 -4 -4 -4 -10z"/>
<path d="M1302 5305 c12 -14 23 -25 25 -25 2 0 -4 11 -13 25 -9 14 -20 25 -25 25 -5 0 1 -11 13 -25z"/>
<path d="M1500 5305 c0 -8 4 -15 10 -15 5 0 7 7 4 15 -4 8 -8 15 -10 15 -2 0 -4 -7 -4 -15z"/>
<path d="M1350 5273 c0 -6 9 -21 21 -34 l20 -24 -17 30 c-24 39 -24 40 -24 28z"/>
<path d="M1546 5251 c10 -17 21 -28 25 -25 5 3 -1 16 -13 29 -29 33 -33 31 -12 -4z"/>
<path d="M1406 5211 c-3 -4 1 -17 8 -27 13 -17 14 -17 9 9 -6 29 -9 32 -17 18z"/>
<path d="M1619 5197 c-7 -20 -4 -34 7 -34 7 0 11 4 8 8 -2 4 1 9 8 11 8 3 6 7 -5 11 -9 3 -17 5 -18 4z"/>
<path d="M1485 5124 c6 -5 23 -20 40 -34 29 -24 29 -24 10 -2 -11 13 -29 28 -40 34 -11 6 -15 6 -10 2z"/>
<path d="M1754 5093 c1 -19 5 -28 10 -23 6 6 5 18 -1 32 -10 21 -10 21 -9 -9z"/>
<path d="M1565 5070 c-3 -5 -1 -10 4 -10 6 0 11 5 11 10 0 6 -2 10 -4 10 -3 0 -8 -4 -11 -10z"/>
<path d="M1636 5057 c3 -10 9 -15 12 -12 3 3 0 11 -7 18 -10 9 -11 8 -5 -6z"/>
<path d="M1608 5033 c7 -3 16 -2 19 1 4 3 -2 6 -13 5 -11 0 -14 -3 -6 -6z"/>
<path d="M1690 5020 c-23 -7 -23 -8 -3 -9 12 -1 25 4 28 9 3 6 5 10 3 9 -2 -1 -14 -5 -28 -9z"/>
<path d="M1878 4752 c4 -169 9 -188 10 -47 1 72 -2 135 -6 142 -4 6 -6 -37 -4 -95z"/>
<path d="M1734 4720 c0 -63 1 -89 3 -57 2 31 2 83 0 115 -2 31 -3 5 -3 -58z"/>
<path d="M1676 4505 c-9 -26 -7 -32 5 -12 6 10 9 21 6 23 -2 3 -7 -2 -11 -11z"/>
<path d="M1836 4493 c-6 -14 -5 -15 5 -6 7 7 10 15 7 18 -3 3 -9 -2 -12 -12z"/>
<path d="M1780 4450 c0 -5 5 -10 11 -10 5 0 7 5 4 10 -3 6 -8 10 -11 10 -2 0 -4 -4 -4 -10z"/>
<path d="M1728 4423 c7 -3 16 -2 19 1 4 3 -2 6 -13 5 -11 0 -14 -3 -6 -6z"/>
<path d="M1691 4255 c1 -19 18 -51 18 -35 0 8 -4 22 -9 30 -5 8 -9 11 -9 5z"/>
<path d="M1456 4162 c-3 -5 1 -15 8 -21 11 -10 14 -9 12 3 -3 21 -13 29 -20 18z"/>
<path d="M1417 4124 c-3 -4 -21 -10 -39 -14 l-33 -8 31 -1 c17 -1 37 6 44 14 12 14 10 21 -3 9z"/>
<path d="M1248 4083 c12 -2 32 -2 45 0 12 2 2 4 -23 4 -25 0 -35 -2 -22 -4z"/>
<path d="M1570 4056 c7 -7 13 -7 20 0 6 6 3 10 -10 10 -13 0 -16 -4 -10 -10z"/>
<path d="M963 4023 c9 -2 25 -2 35 0 9 3 1 5 -18 5 -19 0 -27 -2 -17 -5z"/>
<path d="M1520 4020 c-9 -6 -10 -10 -3 -10 6 0 15 5 18 10 8 12 4 12 -15 0z"/>
<path d="M878 3983 c6 -2 18 -2 25 0 6 3 1 5 -13 5 -14 0 -19 -2 -12 -5z"/>
<path d="M1070 3975 c0 -5 5 -17 10 -25 5 -8 10 -10 10 -5 0 6 -5 17 -10 25 -5 8 -10 11 -10 5z"/>
<path d="M1383 3953 c9 -2 23 -2 30 0 6 3 -1 5 -18 5 -16 0 -22 -2 -12 -5z"/>
<path d="M803 3935 c0 -8 4 -12 9 -9 5 3 6 10 3 15 -9 13 -12 11 -12 -6z"/>
<path d="M1248 3933 c17 -2 47 -2 65 0 17 2 3 4 -33 4 -36 0 -50 -2 -32 -4z"/>
<path d="M768 3913 c7 -3 16 -2 19 1 4 3 -2 6 -13 5 -11 0 -14 -3 -6 -6z"/>
<path d="M716 3863 c-6 -14 -5 -15 5 -6 7 7 10 15 7 18 -3 3 -9 -2 -12 -12z"/>
<path d="M998 3873 c7 -3 16 -2 19 1 4 3 -2 6 -13 5 -11 0 -14 -3 -6 -6z"/>
<path d="M696 3825 c-9 -26 -7 -32 5 -12 6 10 9 21 6 23 -2 3 -7 -2 -11 -11z"/>
<path d="M903 3833 c9 -2 23 -2 30 0 6 3 -1 5 -18 5 -16 0 -22 -2 -12 -5z"/>
<path d="M860 3810 c-6 -11 -8 -20 -6 -20 3 0 10 9 16 20 6 11 8 20 6 20 -3 0 -10 -9 -16 -20z"/>
<path d="M800 3770 c0 -5 5 -10 11 -10 5 0 7 5 4 10 -3 6 -8 10 -11 10 -2 0 -4 -4 -4 -10z"/>
<path d="M748 3743 c7 -3 16 -2 19 1 4 3 -2 6 -13 5 -11 0 -14 -3 -6 -6z"/>
<path d="M651 3534 c0 -11 3 -14 6 -6 3 7 2 16 -1 19 -3 4 -6 -2 -5 -13z"/>
<path d="M873 3435 c0 -8 4 -12 9 -9 5 3 6 10 3 15 -9 13 -12 11 -12 -6z"/>
<path d="M766 3348 c3 -5 10 -6 15 -3 13 9 11 12 -6 12 -8 0 -12 -4 -9 -9z"/>
<path d="M980 3267 c0 -9 4 -18 9 -21 5 -4 8 1 7 9 -3 21 -16 31 -16 12z"/>
<path d="M835 3249 c-4 -6 -5 -12 -2 -15 2 -3 7 2 10 11 7 17 1 20 -8 4z"/>
<path d="M1015 3230 c4 -6 11 -8 16 -5 14 9 11 15 -7 15 -8 0 -12 -5 -9 -10z"/>
<path d="M1422 3061 c-11 -7 -11 -9 0 -14 9 -3 15 1 15 9 0 8 -1 14 -1 14 -1 0 -7 -4 -14 -9z"/>
<path d="M1291 3014 c0 -11 3 -14 6 -6 3 7 2 16 -1 19 -3 4 -6 -2 -5 -13z"/>
<path d="M1498 3013 c7 -3 16 -2 19 1 4 3 -2 6 -13 5 -11 0 -14 -3 -6 -6z"/>
<path d="M1354 2962 c3 -5 0 -13 -6 -15 -9 -4 -10 -6 -1 -6 17 -1 25 16 12 25 -7 4 -9 3 -5 -4z"/>
<path d="M1421 2914 c4 -11 89 -89 89 -82 0 3 -21 24 -46 48 -26 24 -45 39 -43 34z"/>
<path d="M1525 2830 c-3 -5 -1 -10 4 -10 6 0 11 5 11 10 0 6 -2 10 -4 10 -3 0 -8 -4 -11 -10z"/>
<path d="M1818 2442 c4 -218 8 -241 10 -57 1 94 -2 175 -6 182 -4 6 -6 -50 -4 -125z"/>
<path d="M1672 2408 c-1 -81 1 -149 6 -151 4 -3 6 41 4 96 -4 184 -8 204 -10 55z"/>
<path d="M1728 2153 c6 -2 18 -2 25 0 6 3 1 5 -13 5 -14 0 -19 -2 -12 -5z"/>
<path d="M1570 2055 c0 -5 5 -17 10 -25 5 -8 10 -10 10 -5 0 6 -5 17 -10 25 -5 8 -10 11 -10 5z"/>
<path d="M1358 2013 c7 -3 16 -2 19 1 4 3 -2 6 -13 5 -11 0 -14 -3 -6 -6z"/>
<path d="M1533 1973 c4 -3 -1 -16 -10 -27 -18 -21 -18 -21 4 -2 20 16 23 36 6 36 -4 0 -3 -3 0 -7z"/>
<path d="M1235 1965 c23 -8 83 -10 79 -3 -3 4 -24 8 -47 7 -23 0 -37 -2 -32 -4z"/>
<path d="M1128 1923 c27 -3 40 -8 36 -15 -4 -7 -2 -8 5 -4 21 14 0 26 -42 24 l-42 -1 43 -4z"/>
<path d="M1420 1912 c0 -7 -5 -10 -12 -6 -7 4 -8 3 -4 -4 4 -7 3 -12 -1 -12 -5 0 -9 -9 -9 -19 0 -11 4 -17 8 -15 4 3 8 11 8 17 0 7 12 14 27 15 15 1 31 6 36 11 6 6 1 8 -13 4 -13 -4 -25 0 -31 8 -7 11 -9 11 -9 1z"/>
<path d="M1300 1820 l-55 -7 52 -1 c28 -1 55 3 58 8 3 6 5 9 3 8 -2 -1 -28 -4 -58 -8z"/>
<path d="M1108 1773 c17 -2 47 -2 65 0 17 2 3 4 -33 4 -36 0 -50 -2 -32 -4z"/>
<path d="M857 1598 c6 -91 11 -103 12 -28 0 36 -3 71 -7 78 -5 7 -7 -16 -5 -50z"/>
<path d="M713 1555 c0 -44 2 -61 4 -37 2 23 2 59 0 80 -2 20 -4 1 -4 -43z"/>
<path d="M883 1430 c0 -30 2 -43 4 -27 2 15 2 39 0 55 -2 15 -4 2 -4 -28z"/>
<path d="M734 1446 c-3 -8 -4 -27 -2 -43 3 -23 5 -20 9 15 5 43 2 53 -7 28z"/>
<path d="M1158 1233 c7 -3 16 -2 19 1 4 3 -2 6 -13 5 -11 0 -14 -3 -6 -6z"/>
<path d="M1191 1213 c-1 -17 16 -25 25 -12 4 7 3 9 -4 5 -5 -3 -13 0 -15 6 -4 9 -6 10 -6 1z"/>
<path d="M1238 1173 c7 -3 16 -2 19 1 4 3 -2 6 -13 5 -11 0 -14 -3 -6 -6z"/>
<path d="M1279 1157 c-7 -20 -4 -34 7 -34 7 0 11 4 8 8 -2 4 1 9 8 11 8 3 6 7 -5 11 -9 3 -17 5 -18 4z"/>
<path d="M1085 1120 c10 -11 20 -20 22 -20 2 0 -2 9 -9 20 -7 11 -17 20 -22 20 -5 0 -1 -9 9 -20z"/>
<path d="M1358 1123 c6 -2 18 -2 25 0 6 3 1 5 -13 5 -14 0 -19 -2 -12 -5z"/>
<path d="M1450 1075 c0 -5 5 -17 10 -25 5 -8 10 -10 10 -5 0 6 -5 17 -10 25 -5 8 -10 11 -10 5z"/>
<path d="M1170 1053 c8 -3 22 -11 30 -17 13 -10 13 -9 1 7 -7 9 -21 17 -30 16 -13 0 -14 -1 -1 -6z"/>
<path d="M1225 1030 c-3 -5 -1 -10 4 -10 6 0 11 5 11 10 0 6 -2 10 -4 10 -3 0 -8 -4 -11 -10z"/>
<path d="M1268 993 c7 -3 16 -2 19 1 4 3 -2 6 -13 5 -11 0 -14 -3 -6 -6z"/>
<path d="M1338 973 c12 -2 32 -2 45 0 12 2 2 4 -23 4 -25 0 -35 -2 -22 -4z"/>
<path d="M1724 700 c0 -91 2 -128 3 -82 2 45 2 119 0 165 -1 45 -3 8 -3 -83z"/>
<path d="M1574 827 c-2 -7 -3 -76 -2 -152 l3 -140 5 153 c3 83 4 152 2 152 -1 0 -5 -6 -8 -13z"/>
<path d="M1617 354 c3 -27 7 -51 9 -53 8 -9 3 75 -5 88 -5 8 -7 -5 -4 -35z"/>
<path d="M1472 350 c0 -14 2 -19 5 -12 2 6 2 18 0 25 -3 6 -5 1 -5 -13z"/>
<path d="M1456 303 c-6 -14 -5 -15 5 -6 7 7 10 15 7 18 -3 3 -9 -2 -12 -12z"/>
<path d="M1435 261 c-3 -5 -2 -12 3 -15 5 -3 9 1 9 9 0 17 -3 19 -12 6z"/>
<path d="M1396 205 c-3 -9 -5 -40 -4 -68 l1 -52 7 65 c7 70 6 80 -4 55z"/>
<path d="M1539 116 c5 -64 8 -60 13 15 2 26 -1 46 -7 46 -6 0 -8 -24 -6 -61z"/>
<path d="M1361 44 c0 -11 3 -14 6 -6 3 7 2 16 -1 19 -3 4 -6 -2 -5 -13z"/>
<path d="M1335 19 c-4 -6 -5 -12 -2 -15 2 -3 7 2 10 11 7 17 1 20 -8 4z"/>
</g>
</g>
  <g id="id3:id3" transform="matrix(1.25,0,0,1.25,0.0,0.0)"><g transform="translate(0.000000,236.800000) scale(0.040000,-0.040000)" fill="#f8f8f8" stroke="none">
<path d="M1293 5855 c0 -38 2 -53 4 -32 2 20 2 52 0 70 -2 17 -4 1 -4 -38z"/>
<path d="M1124 5725 c0 -99 2 -138 3 -87 2 51 2 132 0 180 -1 48 -3 6 -3 -93z"/>
<path d="M1254 5767 c-3 -8 -4 -49 -2 -93 l3 -79 5 93 c5 92 4 104 -6 79z"/>
<path d="M1272 5555 c0 -16 2 -22 5 -12 2 9 2 23 0 30 -3 6 -5 -1 -5 -18z"/>
<path d="M1198 5483 c6 -2 18 -2 25 0 6 3 1 5 -13 5 -14 0 -19 -2 -12 -5z"/>
<path d="M1221 5424 c0 -11 3 -14 6 -6 3 7 2 16 -1 19 -3 4 -6 -2 -5 -13z"/>
<path d="M1367 5416 c-4 -10 -1 -13 8 -9 8 3 12 9 9 14 -7 12 -11 11 -17 -5z"/>
<path d="M1380 5396 c0 -2 8 -10 18 -17 15 -13 16 -12 3 4 -13 16 -21 21 -21 13z"/>
<path d="M1431 5364 c0 -11 9 -29 22 -40 22 -19 22 -19 6 1 -10 11 -19 29 -22 40 -4 19 -5 19 -6 -1z"/>
<path d="M1321 5311 c-8 -5 -9 -11 -3 -15 5 -3 12 1 16 9 6 17 6 18 -13 6z"/>
<path d="M1490 5301 c0 -11 4 -22 9 -25 4 -3 6 6 3 19 -5 30 -12 33 -12 6z"/>
<path d="M1526 5253 c-6 -14 -5 -15 5 -6 7 7 10 15 7 18 -3 3 -9 -2 -12 -12z"/>
<path d="M1381 5251 c-8 -5 -9 -11 -3 -15 5 -3 12 1 16 9 6 17 6 18 -13 6z"/>
<path d="M1547 5233 c-3 -4 7 -17 22 -27 l26 -20 -20 25 c-11 13 -21 25 -21 27 -1 2 -4 0 -7 -5z"/>
<path d="M1421 5194 c0 -11 3 -14 6 -6 3 7 2 16 -1 19 -3 4 -6 -2 -5 -13z"/>
<path d="M1638 5173 c6 -2 18 -2 25 0 6 3 1 5 -13 5 -14 0 -19 -2 -12 -5z"/>
<path d="M1751 5084 c0 -11 3 -14 6 -6 3 7 2 16 -1 19 -3 4 -6 -2 -5 -13z"/>
<path d="M1603 5043 c9 -2 23 -2 30 0 6 3 -1 5 -18 5 -16 0 -22 -2 -12 -5z"/>
<path d="M1673 5023 c9 -2 23 -2 30 0 6 3 -1 5 -18 5 -16 0 -22 -2 -12 -5z"/>
<path d="M1744 4720 c0 -69 1 -97 3 -62 2 34 2 90 0 125 -2 34 -3 6 -3 -63z"/>
<path d="M1874 4705 c0 -77 2 -107 3 -67 2 40 2 103 0 140 -2 37 -3 4 -3 -73z"/>
<path d="M1702 4540 c0 -14 2 -19 5 -12 2 6 2 18 0 25 -3 6 -5 1 -5 -13z"/>
<path d="M1831 4504 c0 -11 3 -14 6 -6 3 7 2 16 -1 19 -3 4 -6 -2 -5 -13z"/>
<path d="M1681 4484 c0 -11 3 -14 6 -6 3 7 2 16 -1 19 -3 4 -6 -2 -5 -13z"/>
<path d="M1692 4220 c0 -14 2 -19 5 -12 2 6 2 18 0 25 -3 6 -5 1 -5 -13z"/>
<path d="M1533 4202 c-9 -5 -6 -12 10 -21 19 -13 21 -12 10 1 -7 8 -10 18 -6 21 9 9 1 8 -14 -1z"/>
<path d="M1671 4164 c0 -11 3 -14 6 -6 3 7 2 16 -1 19 -3 4 -6 -2 -5 -13z"/>
<path d="M1368 4093 c18 -2 30 -8 27 -14 -3 -5 1 -6 9 -3 27 10 7 24 -32 22 l-37 -1 33 -4z"/>
<path d="M1570 4075 c0 -8 4 -15 10 -15 5 0 7 7 4 15 -4 8 -8 15 -10 15 -2 0 -4 -7 -4 -15z"/>
<path d="M1268 4073 c35 -3 50 -8 46 -15 -4 -7 -2 -8 5 -4 23 15 -1 26 -52 24 l-52 -2 53 -3z"/>
<path d="M958 4013 c12 -2 32 -2 45 0 12 2 2 4 -23 4 -25 0 -35 -2 -22 -4z"/>
<path d="M1161 4004 c0 -11 3 -14 6 -6 3 7 2 16 -1 19 -3 4 -6 -2 -5 -13z"/>
<path d="M1440 3990 c0 -6 7 -10 15 -10 8 0 15 2 15 4 0 2 -7 6 -15 10 -8 3 -15 1 -15 -4z"/>
<path d="M873 3973 c9 -2 25 -2 35 0 9 3 1 5 -18 5 -19 0 -27 -2 -17 -5z"/>
<path d="M1360 3968 c0 -4 16 -8 35 -8 19 0 35 2 35 4 0 2 -16 6 -35 8 -19 2 -35 0 -35 -4z"/>
<path d="M1071 3944 c0 -11 3 -14 6 -6 3 7 2 16 -1 19 -3 4 -6 -2 -5 -13z"/>
<path d="M824 3928 l-19 -23 23 19 c12 11 22 21 22 23 0 8 -8 2 -26 -19z"/>
<path d="M1243 3943 c20 -2 54 -2 75 0 20 2 3 4 -38 4 -41 0 -58 -2 -37 -4z"/>
<path d="M775 3900 c-3 -6 1 -7 9 -4 18 7 21 14 7 14 -6 0 -13 -4 -16 -10z"/>
<path d="M998 3883 c6 -2 18 -2 25 0 6 3 1 5 -13 5 -14 0 -19 -2 -12 -5z"/>
<path d="M903 3843 c9 -2 25 -2 35 0 9 3 1 5 -18 5 -19 0 -27 -2 -17 -5z"/>
<path d="M857 3833 c-4 -3 -7 -13 -7 -22 1 -13 3 -13 11 2 11 19 8 33 -4 20z"/>
<path d="M701 3804 c0 -11 3 -14 6 -6 3 7 2 16 -1 19 -3 4 -6 -2 -5 -13z"/>
<path d="M662 3535 c0 -16 2 -22 5 -12 2 9 2 23 0 30 -3 6 -5 -1 -5 -18z"/>
<path d="M827 3511 c-4 -17 -3 -21 5 -13 5 5 8 16 6 23 -3 8 -7 3 -11 -10z"/>
<path d="M701 3474 c0 -11 3 -14 6 -6 3 7 2 16 -1 19 -3 4 -6 -2 -5 -13z"/>
<path d="M848 3467 c-3 -19 -2 -25 4 -19 6 6 8 18 6 28 -3 14 -5 12 -10 -9z"/>
<path d="M721 3444 c0 -11 3 -14 6 -6 3 7 2 16 -1 19 -3 4 -6 -2 -5 -13z"/>
<path d="M907 3371 c-4 -17 -3 -21 5 -13 5 5 8 16 6 23 -3 8 -7 3 -11 -10z"/>
<path d="M947 3311 c-4 -17 -3 -21 5 -13 5 5 8 16 6 23 -3 8 -7 3 -11 -10z"/>
<path d="M971 3274 c0 -11 3 -14 6 -6 3 7 2 16 -1 19 -3 4 -6 -2 -5 -13z"/>
<path d="M842 3230 c0 -14 2 -19 5 -12 2 6 2 18 0 25 -3 6 -5 1 -5 -13z"/>
<path d="M1072 3170 c0 -14 2 -19 5 -12 2 6 2 18 0 25 -3 6 -5 1 -5 -13z"/>
<path d="M930 3150 c0 -5 5 -10 11 -10 5 0 7 5 4 10 -3 6 -8 10 -11 10 -2 0 -4 -4 -4 -10z"/>
<path d="M958 3123 c7 -3 16 -2 19 1 4 3 -2 6 -13 5 -11 0 -14 -3 -6 -6z"/>
<path d="M998 3103 c6 -2 18 -2 25 0 6 3 1 5 -13 5 -14 0 -19 -2 -12 -5z"/>
<path d="M1302 3015 c0 -16 2 -22 5 -12 2 9 2 23 0 30 -3 6 -5 -1 -5 -18z"/>
<path d="M1455 3031 c-3 -5 0 -13 6 -17 7 -4 9 -3 5 4 -3 6 2 13 11 15 16 4 16 5 1 6 -9 0 -19 -3 -23 -8z"/>
<path d="M1505 2990 c10 -11 20 -20 23 -20 3 0 -3 9 -13 20 -10 11 -20 20 -23 20 -3 0 3 -9 13 -20z"/>
<path d="M1395 2930 c-18 -8 -17 -9 8 -9 16 -1 26 3 22 9 -3 6 -7 10 -8 9 -1 0 -11 -4 -22 -9z"/>
<path d="M1632 2870 c0 -14 2 -19 5 -12 2 6 2 18 0 25 -3 6 -5 1 -5 -13z"/>
<path d="M1558 2803 c6 -2 18 -2 25 0 6 3 1 5 -13 5 -14 0 -19 -2 -12 -5z"/>
<path d="M1684 2410 c0 -85 2 -120 3 -77 2 42 2 112 0 155 -1 42 -3 7 -3 -78z"/>
<path d="M1814 2385 c0 -99 2 -138 3 -87 2 51 2 132 0 180 -1 48 -3 6 -3 -93z"/>
<path d="M1661 2224 c0 -11 3 -14 6 -6 3 7 2 16 -1 19 -3 4 -6 -2 -5 -13z"/>
<path d="M1723 2163 c9 -2 25 -2 35 0 9 3 1 5 -18 5 -19 0 -27 -2 -17 -5z"/>
<path d="M1488 2093 c6 -2 18 -2 25 0 6 3 1 5 -13 5 -14 0 -19 -2 -12 -5z"/>
<path d="M1413 2042 c-9 -5 -6 -12 10 -21 19 -13 21 -12 10 1 -7 8 -10 18 -6 21 9 9 1 8 -14 -1z"/>
<path d="M1571 2024 c0 -11 3 -14 6 -6 3 7 2 16 -1 19 -3 4 -6 -2 -5 -13z"/>
<path d="M1369 1993 c-13 -16 -12 -17 4 -4 9 7 17 15 17 17 0 8 -8 3 -21 -13z"/>
<path d="M1243 1953 c15 -2 37 -2 50 0 12 2 0 4 -28 4 -27 0 -38 -2 -22 -4z"/>
<path d="M1184 1908 l-19 -23 23 19 c21 18 27 26 19 26 -2 0 -12 -10 -23 -22z"/>
<path d="M1103 1913 c15 -2 37 -2 50 0 12 2 0 4 -28 4 -27 0 -38 -2 -22 -4z"/>
<path d="M1438 1903 c6 -2 18 -2 25 0 6 3 1 5 -13 5 -14 0 -19 -2 -12 -5z"/>
<path d="M1021 1844 c0 -11 3 -14 6 -6 3 7 2 16 -1 19 -3 4 -6 -2 -5 -13z"/>
<path d="M1273 1823 c15 -2 39 -2 55 0 15 2 2 4 -28 4 -30 0 -43 -2 -27 -4z"/>
<path d="M1103 1783 c20 -2 54 -2 75 0 20 2 3 4 -38 4 -41 0 -58 -2 -37 -4z"/>
<path d="M724 1555 c0 -49 1 -71 3 -48 2 23 2 64 0 90 -2 26 -3 8 -3 -42z"/>
<path d="M850 1568 c-3 -42 -1 -73 3 -69 4 4 7 39 5 77 l-3 69 -5 -77z"/>
<path d="M873 1430 c0 -36 2 -50 4 -32 2 17 2 47 0 65 -2 17 -4 3 -4 -33z"/>
<path d="M743 1410 c0 -25 2 -35 4 -22 2 12 2 32 0 45 -2 12 -4 2 -4 -23z"/>
<path d="M798 1323 c6 -2 18 -2 25 0 6 3 1 5 -13 5 -14 0 -19 -2 -12 -5z"/>
<path d="M1068 1273 c6 -2 18 -2 25 0 6 3 1 5 -13 5 -14 0 -19 -2 -12 -5z"/>
<path d="M1115 1251 c-3 -5 0 -13 6 -17 7 -4 9 -3 5 4 -3 6 2 13 11 15 16 4 16 5 1 6 -9 0 -19 -3 -23 -8z"/>
<path d="M1165 1210 c10 -11 20 -20 23 -20 3 0 -3 9 -13 20 -10 11 -20 20 -23 20 -3 0 3 -9 13 -20z"/>
<path d="M1001 1204 c0 -11 3 -14 6 -6 3 7 2 16 -1 19 -3 4 -6 -2 -5 -13z"/>
<path d="M1210 1185 c0 -8 2 -15 4 -15 2 0 6 7 10 15 3 8 1 15 -4 15 -6 0 -10 -7 -10 -15z"/>
<path d="M1245 1150 c10 -11 20 -20 23 -20 3 0 -3 9 -13 20 -10 11 -20 20 -23 20 -3 0 3 -9 13 -20z"/>
<path d="M1060 1150 c-12 -8 -10 -10 8 -10 13 0 20 4 17 10 -7 12 -6 12 -25 0z"/>
<path d="M1101 1131 c-8 -5 -9 -11 -3 -15 5 -3 12 1 16 9 6 17 6 18 -13 6z"/>
<path d="M1298 1133 c7 -3 16 -2 19 1 4 3 -2 6 -13 5 -11 0 -14 -3 -6 -6z"/>
<path d="M1335 1111 c-3 -5 0 -13 6 -17 7 -4 9 -3 5 4 -4 7 6 12 26 15 l33 4 -32 1 c-17 1 -34 -2 -38 -7z"/>
<path d="M1158 1063 c6 -2 18 -2 25 0 6 3 1 5 -13 5 -14 0 -19 -2 -12 -5z"/>
<path d="M1451 1044 c0 -11 3 -14 6 -6 3 7 2 16 -1 19 -3 4 -6 -2 -5 -13z"/>
<path d="M1263 1003 c9 -2 23 -2 30 0 6 3 -1 5 -18 5 -16 0 -22 -2 -12 -5z"/>
<path d="M1333 983 c15 -2 39 -2 55 0 15 2 2 4 -28 4 -30 0 -43 -2 -27 -4z"/>
<path d="M1561 864 c0 -11 3 -14 6 -6 3 7 2 16 -1 19 -3 4 -6 -2 -5 -13z"/>
<path d="M1714 700 c0 -96 2 -136 3 -87 2 48 2 126 0 175 -1 48 -3 8 -3 -88z"/>
<path d="M1584 680 c0 -85 2 -120 3 -77 2 42 2 112 0 155 -1 42 -3 7 -3 -78z"/>
<path d="M1638 483 c6 -2 18 -2 25 0 6 3 1 5 -13 5 -14 0 -19 -2 -12 -5z"/>
<path d="M1480 351 c0 -17 4 -32 8 -35 4 -2 6 11 4 30 -5 42 -12 45 -12 5z"/>
<path d="M1613 335 c0 -27 2 -38 4 -22 2 15 2 37 0 50 -2 12 -4 0 -4 -28z"/>
<path d="M1460 286 c0 -8 4 -17 9 -20 5 -4 7 3 4 14 -6 23 -13 26 -13 6z"/>
<path d="M1401 143 c0 -34 2 -64 7 -66 4 -3 6 16 4 41 -5 80 -9 90 -11 25z"/>
<path d="M1533 110 c0 -36 2 -50 4 -32 2 17 2 47 0 65 -2 17 -4 3 -4 -33z"/>
</g>
</g>
  <g id="id4:id4" transform="matrix(1.25,0,0,1.25,0.0,0.0)"><g transform="translate(0.000000,236.800000) scale(0.040000,-0.040000)" fill="#ececec" stroke="none">
<path d="M1245 5780 c-16 -7 -17 -9 -3 -9 9 -1 20 4 23 9 7 11 7 11 -20 0z"/>
<path d="M1259 5453 c-13 -16 -12 -17 4 -4 16 13 21 21 13 21 -2 0 -10 -8 -17 -17z"/>
<path d="M1297 5339 c7 -7 15 -10 18 -7 3 3 -2 9 -12 12 -14 6 -15 5 -6 -5z"/>
<path d="M1357 5279 c7 -7 15 -10 18 -7 3 3 -2 9 -12 12 -14 6 -15 5 -6 -5z"/>
<path d="M1467 5169 c12 -12 24 -21 27 -18 2 2 -8 13 -22 23 l-27 19 22 -24z"/>
<path d="M1545 5110 c21 -22 41 -40 44 -40 3 0 -13 18 -34 40 -21 22 -41 40 -44 40 -3 0 13 -18 34 -40z"/>
<path d="M1779 4853 c-13 -16 -12 -17 4 -4 9 7 17 15 17 17 0 8 -8 3 -21 -13z"/>
<path d="M1739 4573 c-13 -16 -12 -17 4 -4 9 7 17 15 17 17 0 8 -8 3 -21 -13z"/>
<path d="M1784 4468 l-19 -23 23 19 c21 18 27 26 19 26 -2 0 -12 -10 -23 -22z"/>
<path d="M1604 4108 l-19 -23 23 19 c21 18 27 26 19 26 -2 0 -12 -10 -23 -22z"/>
<path d="M1530 4060 c-9 -6 -10 -10 -3 -10 6 0 15 5 18 10 8 12 4 12 -15 0z"/>
<path d="M1199 4033 c-13 -16 -12 -17 4 -4 9 7 17 15 17 17 0 8 -8 3 -21 -13z"/>
<path d="M1484 4028 l-19 -23 23 19 c21 18 27 26 19 26 -2 0 -12 -10 -23 -22z"/>
<path d="M919 3973 c-13 -16 -12 -17 4 -4 16 13 21 21 13 21 -2 0 -10 -8 -17 -17z"/>
<path d="M964 3888 l-19 -23 23 19 c21 18 27 26 19 26 -2 0 -12 -10 -23 -22z"/>
<path d="M861 3850 c-13 -11 -19 -20 -14 -20 6 0 18 9 28 20 23 25 17 25 -14 0z"/>
<path d="M804 3788 l-19 -23 23 19 c21 18 27 26 19 26 -2 0 -12 -10 -23 -22z"/>
<path d="M699 3573 c-13 -16 -12 -17 4 -4 9 7 17 15 17 17 0 8 -8 3 -21 -13z"/>
<path d="M925 3170 c10 -11 20 -20 23 -20 3 0 -3 9 -13 20 -10 11 -20 20 -23 20 -3 0 3 -9 13 -20z"/>
<path d="M1339 3053 c-13 -16 -12 -17 4 -4 9 7 17 15 17 17 0 8 -8 3 -21 -13z"/>
<path d="M1417 2939 c7 -7 15 -10 18 -7 3 3 -2 9 -12 12 -14 6 -15 5 -6 -5z"/>
<path d="M1495 2880 c27 -27 51 -50 54 -50 3 0 -17 23 -44 50 -27 28 -51 50 -54 50 -3 0 17 -22 44 -50z"/>
<path d="M1719 2573 c-13 -16 -12 -17 4 -4 9 7 17 15 17 17 0 8 -8 3 -21 -13z"/>
<path d="M1459 2053 c-13 -16 -12 -17 4 -4 9 7 17 15 17 17 0 8 -8 3 -21 -13z"/>
<path d="M1484 1948 l-19 -23 23 19 c21 18 27 26 19 26 -2 0 -12 -10 -23 -22z"/>
<path d="M1059 1873 c-13 -16 -12 -17 4 -4 9 7 17 15 17 17 0 8 -8 3 -21 -13z"/>
<path d="M1224 1828 l-19 -23 23 19 c21 18 27 26 19 26 -2 0 -12 -10 -23 -22z"/>
<path d="M759 1653 c-13 -16 -12 -17 4 -4 9 7 17 15 17 17 0 8 -8 3 -21 -13z"/>
<path d="M1039 1233 c-13 -16 -12 -17 4 -4 9 7 17 15 17 17 0 8 -8 3 -21 -13z"/>
<path d="M1077 1159 c7 -7 15 -10 18 -7 3 3 -2 9 -12 12 -14 6 -15 5 -6 -5z"/>
<path d="M1190 1087 c0 -2 15 -16 33 -33 l32 -29 -29 33 c-28 30 -36 37 -36 29z"/>
<path d="M1599 893 c-13 -16 -12 -17 4 -4 9 7 17 15 17 17 0 8 -8 3 -21 -13z"/>
<path d="M1519 393 c-13 -16 -12 -17 4 -4 16 13 21 21 13 21 -2 0 -10 -8 -17 -17z"/>
<path d="M1529 193 c-13 -16 -12 -17 4 -4 16 13 21 21 13 21 -2 0 -10 -8 -17 -17z"/>
</g>
</g>
  <g id="id5:id5" transform="matrix(1.25,0,0,1.25,0.0,0.0)"><g transform="translate(0.000000,236.800000) scale(0.040000,-0.040000)" fill="#d9d9d9" stroke="none">
<path d="M1638 5143 c6 -2 18 -2 25 0 6 3 1 5 -13 5 -14 0 -19 -2 -12 -5z"/>
<path d="M1711 4484 c0 -11 3 -14 6 -6 3 7 2 16 -1 19 -3 4 -6 -2 -5 -13z"/>
<path d="M1528 4163 c7 -3 16 -2 19 1 4 3 -2 6 -13 5 -11 0 -14 -3 -6 -6z"/>
<path d="M1489 4143 c-13 -16 -12 -17 4 -4 9 7 17 15 17 17 0 8 -8 3 -21 -13z"/>
<path d="M1191 4004 c0 -11 3 -14 6 -6 3 7 2 16 -1 19 -3 4 -6 -2 -5 -13z"/>
<path d="M900 3950 c-9 -6 -10 -10 -3 -10 6 0 15 5 18 10 8 12 4 12 -15 0z"/>
<path d="M769 3883 c-13 -16 -12 -17 4 -4 9 7 17 15 17 17 0 8 -8 3 -21 -13z"/>
<path d="M731 3804 c0 -11 3 -14 6 -6 3 7 2 16 -1 19 -3 4 -6 -2 -5 -13z"/>
<path d="M765 3560 c10 -11 20 -20 23 -20 3 0 -3 9 -13 20 -10 11 -20 20 -23 20 -3 0 3 -9 13 -20z"/>
<path d="M1691 2224 c0 -11 3 -14 6 -6 3 7 2 16 -1 19 -3 4 -6 -2 -5 -13z"/>
<path d="M1408 2003 c7 -3 16 -2 19 1 4 3 -2 6 -13 5 -11 0 -14 -3 -6 -6z"/>
<path d="M1051 1844 c0 -11 3 -14 6 -6 3 7 2 16 -1 19 -3 4 -6 -2 -5 -13z"/>
<path d="M1031 1204 c0 -11 3 -14 6 -6 3 7 2 16 -1 19 -3 4 -6 -2 -5 -13z"/>
<path d="M1298 1103 c7 -3 16 -2 19 1 4 3 -2 6 -13 5 -11 0 -14 -3 -6 -6z"/>
</g>
</g>
  <g id="id6:id6" transform="matrix(1.25,0,0,1.25,0.0,0.0)"><g transform="translate(0.000000,236.800000) scale(0.040000,-0.040000)" fill="#cacaca" stroke="none">
<path d="M1154 5725 c0 -93 2 -133 3 -88 2 45 2 122 0 170 -1 48 -3 12 -3 -82z"/>
<path d="M1263 5840 c0 -25 2 -35 4 -22 2 12 2 32 0 45 -2 12 -4 2 -4 -23z"/>
<path d="M1223 5690 c0 -47 2 -66 4 -42 2 23 2 61 0 85 -2 23 -4 4 -4 -43z"/>
<path d="M1241 5554 c0 -11 3 -14 6 -6 3 7 2 16 -1 19 -3 4 -6 -2 -5 -13z"/>
<path d="M1590 5175 c13 -14 26 -25 28 -25 3 0 -5 11 -18 25 -13 14 -26 25 -28 25 -3 0 5 -11 18 -25z"/>
<path d="M1608 5073 c6 -2 18 -2 25 0 6 3 1 5 -13 5 -14 0 -19 -2 -12 -5z"/>
<path d="M1678 5053 c7 -3 16 -2 19 1 4 3 -2 6 -13 5 -11 0 -14 -3 -6 -6z"/>
<path d="M1774 4720 c0 -63 1 -89 3 -57 2 31 2 83 0 115 -2 31 -3 5 -3 -58z"/>
<path d="M1844 4705 c0 -71 1 -99 3 -62 2 37 2 96 0 130 -2 34 -3 4 -3 -68z"/>
<path d="M1661 4224 c0 -11 3 -14 6 -6 3 7 2 16 -1 19 -3 4 -6 -2 -5 -13z"/>
<path d="M1358 4063 c6 -2 18 -2 25 0 6 3 1 5 -13 5 -14 0 -19 -2 -12 -5z"/>
<path d="M1248 4043 c12 -2 32 -2 45 0 12 2 2 4 -23 4 -25 0 -35 -2 -22 -4z"/>
<path d="M1383 3993 c9 -2 23 -2 30 0 6 3 -1 5 -18 5 -16 0 -22 -2 -12 -5z"/>
<path d="M963 3983 c9 -2 25 -2 35 0 9 3 1 5 -18 5 -19 0 -27 -2 -17 -5z"/>
<path d="M1248 3973 c17 -2 47 -2 65 0 17 2 3 4 -33 4 -36 0 -50 -2 -32 -4z"/>
<path d="M918 3873 c7 -3 16 -2 19 1 4 3 -2 6 -13 5 -11 0 -14 -3 -6 -6z"/>
<path d="M855 3410 c10 -11 20 -20 23 -20 3 0 -3 9 -13 20 -10 11 -20 20 -23 20 -3 0 3 -9 13 -20z"/>
<path d="M890 3356 c0 -2 8 -10 18 -17 15 -13 16 -12 3 4 -13 16 -21 21 -21 13z"/>
<path d="M871 3234 c0 -11 3 -14 6 -6 3 7 2 16 -1 19 -3 4 -6 -2 -5 -13z"/>
<path d="M1331 3014 c0 -11 3 -14 6 -6 3 7 2 16 -1 19 -3 4 -6 -2 -5 -13z"/>
<path d="M1540 2945 c19 -19 36 -35 39 -35 3 0 -10 16 -29 35 -19 19 -36 35 -39 35 -3 0 10 -16 29 -35z"/>
<path d="M1714 2405 c0 -82 2 -115 3 -72 2 43 2 110 0 150 -1 40 -3 5 -3 -78z"/>
<path d="M1784 2385 c0 -93 2 -133 3 -88 2 45 2 122 0 170 -1 48 -3 12 -3 -82z"/>
<path d="M1728 2193 c6 -2 18 -2 25 0 6 3 1 5 -13 5 -14 0 -19 -2 -12 -5z"/>
<path d="M1438 1933 c7 -3 16 -2 19 1 4 3 -2 6 -13 5 -11 0 -14 -3 -6 -6z"/>
<path d="M1248 1923 c12 -2 32 -2 45 0 12 2 2 4 -23 4 -25 0 -35 -2 -22 -4z"/>
<path d="M1108 1883 c12 -2 30 -2 40 0 9 3 -1 5 -23 4 -22 0 -30 -2 -17 -4z"/>
<path d="M1278 1853 c12 -2 32 -2 45 0 12 2 2 4 -23 4 -25 0 -35 -2 -22 -4z"/>
<path d="M1108 1813 c17 -2 47 -2 65 0 17 2 3 4 -33 4 -36 0 -50 -2 -32 -4z"/>
<path d="M753 1555 c0 -44 2 -61 4 -37 2 23 2 59 0 80 -2 20 -4 1 -4 -43z"/>
<path d="M823 1570 c0 -36 2 -50 4 -32 2 17 2 47 0 65 -2 17 -4 3 -4 -33z"/>
<path d="M843 1430 c0 -30 2 -43 4 -27 2 15 2 39 0 55 -2 15 -4 2 -4 -28z"/>
<path d="M773 1415 c0 -22 2 -30 4 -17 2 12 2 30 0 40 -3 9 -5 -1 -4 -23z"/>
<path d="M1250 1136 c0 -2 8 -10 18 -17 15 -13 16 -12 3 4 -13 16 -21 21 -21 13z"/>
<path d="M1168 1093 c7 -3 16 -2 19 1 4 3 -2 6 -13 5 -11 0 -14 -3 -6 -6z"/>
<path d="M1358 1083 c6 -2 18 -2 25 0 6 3 1 5 -13 5 -14 0 -19 -2 -12 -5z"/>
<path d="M1268 1033 c7 -3 16 -2 19 1 4 3 -2 6 -13 5 -11 0 -14 -3 -6 -6z"/>
<path d="M1338 1013 c12 -2 32 -2 45 0 12 2 2 4 -23 4 -25 0 -35 -2 -22 -4z"/>
<path d="M1684 700 c0 -91 2 -128 3 -82 2 45 2 119 0 165 -1 45 -3 8 -3 -83z"/>
<path d="M1614 685 c0 -82 2 -115 3 -72 2 43 2 110 0 150 -1 40 -3 5 -3 -78z"/>
<path d="M1512 350 c0 -14 2 -19 5 -12 2 6 2 18 0 25 -3 6 -5 1 -5 -13z"/>
<path d="M1583 335 c0 -22 2 -30 4 -17 2 12 2 30 0 40 -3 9 -5 -1 -4 -23z"/>
<path d="M1433 140 c0 -30 2 -43 4 -28 2 16 2 40 0 56 -2 15 -4 2 -4 -28z"/>
<path d="M1503 115 c0 -33 2 -45 4 -27 2 18 2 45 0 60 -2 15 -4 0 -4 -33z"/>
</g>
</g>
  <g id="id7:id7" transform="matrix(1.25,0,0,1.25,0.0,0.0)"><g transform="translate(0.000000,236.800000) scale(0.040000,-0.040000)" fill="#b6b6b6" stroke="none">
</g>
</g>
  <g id="id8:id8" transform="matrix(1.25,0,0,1.25,0.0,0.0)"><g transform="translate(0.000000,236.800000) scale(0.040000,-0.040000)" fill="#a1a1a1" stroke="none">
<path d="M1499 4143 c-13 -16 -12 -17 4 -4 9 7 17 15 17 17 0 8 -8 3 -21 -13z"/>
<path d="M774 3878 l-19 -23 23 19 c21 18 27 26 19 26 -2 0 -12 -10 -23 -22z"/>
<path d="M740 3576 c0 -2 8 -10 18 -17 15 -13 16 -12 3 4 -13 16 -21 21 -21 13z"/>
</g>
</g>
  <g id="id9:id9" transform="matrix(1.25,0,0,1.25,0.0,0.0)"><g transform="translate(0.000000,236.800000) scale(0.040000,-0.040000)" fill="#848484" stroke="none">
<path d="M1175 5540 c10 -11 20 -20 23 -20 3 0 -3 9 -13 20 -10 11 -20 20 -23 20 -3 0 3 -9 13 -20z"/>
<path d="M1310 5446 c0 -2 8 -10 18 -17 15 -13 16 -12 3 4 -13 16 -21 21 -21 13z"/>
<path d="M1370 5386 c0 -2 8 -10 18 -17 15 -13 16 -12 3 4 -13 16 -21 21 -21 13z"/>
<path d="M1430 5326 c0 -2 8 -10 18 -17 15 -13 16 -12 3 4 -13 16 -21 21 -21 13z"/>
<path d="M1580 5175 c19 -19 36 -35 39 -35 3 0 -10 16 -29 35 -19 19 -36 35 -39 35 -3 0 10 -16 29 -35z"/>
<path d="M770 3546 c0 -2 8 -10 18 -17 15 -13 16 -12 3 4 -13 16 -21 21 -21 13z"/>
<path d="M855 3400 c10 -11 20 -20 23 -20 3 0 -3 9 -13 20 -10 11 -20 20 -23 20 -3 0 3 -9 13 -20z"/>
<path d="M895 3340 c10 -11 20 -20 23 -20 3 0 -3 9 -13 20 -10 11 -20 20 -23 20 -3 0 3 -9 13 -20z"/>
<path d="M955 3240 c10 -11 20 -20 23 -20 3 0 -3 9 -13 20 -10 11 -20 20 -23 20 -3 0 3 -9 13 -20z"/>
<path d="M1010 3206 c0 -2 8 -10 18 -17 15 -13 16 -12 3 4 -13 16 -21 21 -21 13z"/>
<path d="M1540 2935 c30 -30 57 -55 59 -55 3 0 -19 25 -49 55 -30 30 -57 55 -59 55 -3 0 19 -25 49 -55z"/>
<path d="M1150 1206 c0 -2 8 -10 18 -17 15 -13 16 -12 3 4 -13 16 -21 21 -21 13z"/>
<path d="M1250 1125 c13 -14 26 -25 28 -25 3 0 -5 11 -18 25 -13 14 -26 25 -28 25 -3 0 5 -11 18 -25z"/>
<path d="M1650 886 c0 -2 8 -10 18 -17 15 -13 16 -12 3 4 -13 16 -21 21 -21 13z"/>
<path d="M1459 223 c-13 -16 -12 -17 4 -4 16 13 21 21 13 21 -2 0 -10 -8 -17 -17z"/>
<path d="M1419 63 c-13 -16 -12 -17 4 -4 16 13 21 21 13 21 -2 0 -10 -8 -17 -17z"/>
</g>
</g>
  <g id="id10:id10" transform="matrix(1.25,0,0,1.25,0.0,0.0)"><g transform="translate(0.000000,236.800000) scale(0.040000,-0.040000)" fill="#696969" stroke="none">
<path d="M1290 5366 c0 -2 8 -10 18 -17 15 -13 16 -12 3 4 -13 16 -21 21 -21 13z"/>
<path d="M1475 5180 c10 -11 20 -20 23 -20 3 0 -3 9 -13 20 -10 11 -20 20 -23 20 -3 0 3 -9 13 -20z"/>
<path d="M1449 4103 c-13 -16 -12 -17 4 -4 9 7 17 15 17 17 0 8 -8 3 -21 -13z"/>
<path d="M1209 4023 c-13 -16 -12 -17 4 -4 9 7 17 15 17 17 0 8 -8 3 -21 -13z"/>
<path d="M929 3963 c-13 -16 -12 -17 4 -4 9 7 17 15 17 17 0 8 -8 3 -21 -13z"/>
<path d="M1469 2043 c-13 -16 -12 -17 4 -4 9 7 17 15 17 17 0 8 -8 3 -21 -13z"/>
<path d="M1519 2003 c-13 -16 -12 -17 4 -4 9 7 17 15 17 17 0 8 -8 3 -21 -13z"/>
<path d="M1069 1863 c-13 -16 -12 -17 4 -4 9 7 17 15 17 17 0 8 -8 3 -21 -13z"/>
<path d="M1049 1223 c-13 -16 -12 -17 4 -4 9 7 17 15 17 17 0 8 -8 3 -21 -13z"/>
</g>
</g>
  <g id="id11:id11" transform="matrix(1.25,0,0,1.25,0.0,0.0)"><g transform="translate(0.000000,236.800000) scale(0.040000,-0.040000)" fill="#4f4f4f" stroke="none">
<path d="M1520 5157 c0 -2 15 -16 33 -33 l32 -29 -29 33 c-28 30 -36 37 -36 29z"/>
<path d="M1690 5116 c0 -2 8 -10 18 -17 15 -13 16 -12 3 4 -13 16 -21 21 -21 13z"/>
<path d="M1769 4473 c-13 -16 -12 -17 4 -4 16 13 21 21 13 21 -2 0 -10 -8 -17 -17z"/>
<path d="M1604 4128 l-19 -23 23 19 c21 18 27 26 19 26 -2 0 -12 -10 -23 -22z"/>
<path d="M1479 4043 c-13 -16 -12 -17 4 -4 9 7 17 15 17 17 0 8 -8 3 -21 -13z"/>
<path d="M959 3903 c-13 -16 -12 -17 4 -4 9 7 17 15 17 17 0 8 -8 3 -21 -13z"/>
<path d="M859 3863 c-13 -16 -12 -17 4 -4 9 7 17 15 17 17 0 8 -8 3 -21 -13z"/>
<path d="M789 3793 c-13 -16 -12 -17 4 -4 9 7 17 15 17 17 0 8 -8 3 -21 -13z"/>
<path d="M740 3566 c0 -2 8 -10 18 -17 15 -13 16 -12 3 4 -13 16 -21 21 -21 13z"/>
<path d="M1500 2898 c24 -27 45 -48 47 -48 8 0 0 9 -44 50 l-48 45 45 -47z"/>
<path d="M1484 1968 l-19 -23 23 19 c21 18 27 26 19 26 -2 0 -12 -10 -23 -22z"/>
<path d="M1219 1843 c-13 -16 -12 -17 4 -4 9 7 17 15 17 17 0 8 -8 3 -21 -13z"/>
<path d="M1215 1080 c10 -11 20 -20 23 -20 3 0 -3 9 -13 20 -10 11 -20 20 -23 20 -3 0 3 -9 13 -20z"/>
<path d="M1514 198 l-19 -23 23 19 c21 18 27 26 19 26 -2 0 -12 -10 -23 -22z"/>
<path d="M1469 33 c-13 -16 -12 -17 4 -4 16 13 21 21 13 21 -2 0 -10 -8 -17 -17z"/>
</g>
</g>
  <g id="id12:id12" transform="matrix(1.25,0,0,1.25,0.0,0.0)"><g transform="translate(0.000000,236.800000) scale(0.040000,-0.040000)" fill="#373737" stroke="none">
<path d="M1164 5730 c0 -91 2 -128 3 -82 2 45 2 119 0 165 -1 45 -3 8 -3 -83z"/>
<path d="M1253 5835 c0 -22 2 -30 4 -17 2 12 2 30 0 40 -3 9 -5 -1 -4 -23z"/>
<path d="M1214 5685 c0 -49 1 -71 3 -48 2 23 2 64 0 90 -2 26 -3 8 -3 -42z"/>
<path d="M1170 5556 c0 -2 8 -10 18 -17 15 -13 16 -12 3 4 -13 16 -21 21 -21 13z"/>
<path d="M1370 5376 c0 -2 8 -10 18 -17 15 -13 16 -12 3 4 -13 16 -21 21 -21 13z"/>
<path d="M1430 5316 c0 -2 8 -10 18 -17 15 -13 16 -12 3 4 -13 16 -21 21 -21 13z"/>
<path d="M1550 5197 c0 -2 15 -16 33 -33 l32 -29 -29 33 c-28 30 -36 37 -36 29z"/>
<path d="M1608 5083 c6 -2 18 -2 25 0 6 3 1 5 -13 5 -14 0 -19 -2 -12 -5z"/>
<path d="M1784 4715 c0 -66 1 -92 3 -57 2 34 2 88 0 120 -2 31 -3 3 -3 -63z"/>
<path d="M1834 4705 c0 -71 1 -99 3 -62 2 37 2 96 0 130 -2 34 -3 4 -3 -68z"/>
<path d="M1741 4534 c0 -11 3 -14 6 -6 3 7 2 16 -1 19 -3 4 -6 -2 -5 -13z"/>
<path d="M1558 4103 c7 -3 16 -2 19 1 4 3 -2 6 -13 5 -11 0 -14 -3 -6 -6z"/>
<path d="M1363 4053 c9 -2 23 -2 30 0 6 3 -1 5 -18 5 -16 0 -22 -2 -12 -5z"/>
<path d="M1253 4033 c15 -2 37 -2 50 0 12 2 0 4 -28 4 -27 0 -38 -2 -22 -4z"/>
<path d="M1383 4003 c9 -2 23 -2 30 0 6 3 -1 5 -18 5 -16 0 -22 -2 -12 -5z"/>
<path d="M1263 3983 c15 -2 39 -2 55 0 15 2 2 4 -28 4 -30 0 -43 -2 -27 -4z"/>
<path d="M963 3973 c9 -2 25 -2 35 0 9 3 1 5 -18 5 -19 0 -27 -2 -17 -5z"/>
<path d="M878 3933 c6 -2 18 -2 25 0 6 3 1 5 -13 5 -14 0 -19 -2 -12 -5z"/>
<path d="M988 3923 c6 -2 18 -2 25 0 6 3 1 5 -13 5 -14 0 -19 -2 -12 -5z"/>
<path d="M903 3883 c9 -2 23 -2 30 0 6 3 -1 5 -18 5 -16 0 -22 -2 -12 -5z"/>
<path d="M840 3406 c0 -2 8 -10 18 -17 15 -13 16 -12 3 4 -13 16 -21 21 -21 13z"/>
<path d="M880 3346 c0 -2 8 -10 18 -17 15 -13 16 -12 3 4 -13 16 -21 21 -21 13z"/>
<path d="M881 3244 c0 -11 3 -14 6 -6 3 7 2 16 -1 19 -3 4 -6 -2 -5 -13z"/>
<path d="M1535 2930 c27 -27 51 -50 54 -50 3 0 -17 23 -44 50 -27 28 -51 50 -54 50 -3 0 17 -22 44 -50z"/>
<path d="M1724 2405 c0 -82 2 -115 3 -72 2 43 2 110 0 150 -1 40 -3 5 -3 -78z"/>
<path d="M1774 2385 c0 -93 2 -133 3 -88 2 45 2 122 0 170 -1 48 -3 12 -3 -82z"/>
<path d="M1438 1943 c7 -3 16 -2 19 1 4 3 -2 6 -13 5 -11 0 -14 -3 -6 -6z"/>
<path d="M1248 1913 c12 -2 32 -2 45 0 12 2 2 4 -23 4 -25 0 -35 -2 -22 -4z"/>
<path d="M1113 1873 c15 -2 37 -2 50 0 12 2 0 4 -28 4 -27 0 -38 -2 -22 -4z"/>
<path d="M1273 1863 c15 -2 37 -2 50 0 12 2 0 4 -28 4 -27 0 -38 -2 -22 -4z"/>
<path d="M1123 1823 c15 -2 39 -2 55 0 15 2 2 4 -28 4 -30 0 -43 -2 -27 -4z"/>
<path d="M763 1560 c0 -41 2 -58 4 -37 2 20 2 54 0 75 -2 20 -4 3 -4 -38z"/>
<path d="M813 1565 c0 -38 2 -53 4 -32 2 20 2 52 0 70 -2 17 -4 1 -4 -38z"/>
<path d="M833 1425 c0 -27 2 -38 4 -22 2 15 2 37 0 50 -2 12 -4 0 -4 -28z"/>
<path d="M782 1420 c0 -19 2 -27 5 -17 2 9 2 25 0 35 -3 9 -5 1 -5 -18z"/>
<path d="M1150 1196 c0 -2 8 -10 18 -17 15 -13 16 -12 3 4 -13 16 -21 21 -21 13z"/>
<path d="M1245 1120 c10 -11 20 -20 23 -20 3 0 -3 9 -13 20 -10 11 -20 20 -23 20 -3 0 3 -9 13 -20z"/>
<path d="M1168 1103 c7 -3 16 -2 19 1 4 3 -2 6 -13 5 -11 0 -14 -3 -6 -6z"/>
<path d="M1353 1073 c9 -2 23 -2 30 0 6 3 -1 5 -18 5 -16 0 -22 -2 -12 -5z"/>
<path d="M1268 1043 c7 -3 16 -2 19 1 4 3 -2 6 -13 5 -11 0 -14 -3 -6 -6z"/>
<path d="M1338 1023 c12 -2 30 -2 40 0 9 3 -1 5 -23 4 -22 0 -30 -2 -17 -4z"/>
<path d="M1674 695 c0 -88 2 -123 3 -77 2 46 2 118 0 160 -1 42 -3 5 -3 -83z"/>
<path d="M1624 690 c0 -80 2 -112 3 -72 2 39 2 105 0 145 -1 39 -3 7 -3 -73z"/>
<path d="M1522 345 c0 -16 2 -22 5 -12 2 9 2 23 0 30 -3 6 -5 -1 -5 -18z"/>
<path d="M1573 335 c0 -22 2 -30 4 -17 2 12 2 30 0 40 -3 9 -5 -1 -4 -23z"/>
<path d="M1443 135 c0 -33 2 -45 4 -27 2 18 2 45 0 60 -2 15 -4 0 -4 -33z"/>
<path d="M1493 115 c0 -33 2 -45 4 -27 2 18 2 45 0 60 -2 15 -4 0 -4 -33z"/>
</g>
</g>
  <g id="id13:id13" transform="matrix(1.25,0,0,1.25,0.0,0.0)"><g transform="translate(0.000000,236.800000) scale(0.040000,-0.040000)" fill="#252525" stroke="none">
<path d="M1290 5376 c0 -2 8 -10 18 -17 15 -13 16 -12 3 4 -13 16 -21 21 -21 13z"/>
</g>
</g>
  <g id="id14:id14" transform="matrix(1.25,0,0,1.25,0.0,0.0)"><g transform="translate(0.000000,236.800000) scale(0.040000,-0.040000)" fill="#131313" stroke="none">
<path d="M1340 5346 c0 -2 8 -10 18 -17 15 -13 16 -12 3 4 -13 16 -21 21 -21 13z"/>
<path d="M1400 5286 c0 -2 8 -10 18 -17 15 -13 16 -12 3 4 -13 16 -21 21 -21 13z"/>
<path d="M1490 5236 c0 -2 8 -10 18 -17 15 -13 16 -12 3 4 -13 16 -21 21 -21 13z"/>
<path d="M1550 5135 c19 -19 36 -35 39 -35 3 0 -10 16 -29 35 -19 19 -36 35 -39 35 -3 0 10 -16 29 -35z"/>
<path d="M1597 5139 c7 -7 15 -10 18 -7 3 3 -2 9 -12 12 -14 6 -15 5 -6 -5z"/>
<path d="M1657 5119 c7 -7 15 -10 18 -7 3 3 -2 9 -12 12 -14 6 -15 5 -6 -5z"/>
<path d="M1764 4568 l-19 -23 23 19 c21 18 27 26 19 26 -2 0 -12 -10 -23 -22z"/>
<path d="M1769 4483 c-13 -16 -12 -17 4 -4 9 7 17 15 17 17 0 8 -8 3 -21 -13z"/>
<path d="M1570 4160 c-9 -6 -10 -10 -3 -10 6 0 15 5 18 10 8 12 4 12 -15 0z"/>
<path d="M1599 4133 l-24 -28 28 24 c25 23 32 31 24 31 -2 0 -14 -12 -28 -27z"/>
<path d="M1474 4048 l-19 -23 23 19 c21 18 27 26 19 26 -2 0 -12 -10 -23 -22z"/>
<path d="M954 3908 l-19 -23 23 19 c21 18 27 26 19 26 -2 0 -12 -10 -23 -22z"/>
<path d="M830 3900 c-9 -6 -10 -10 -3 -10 6 0 15 5 18 10 8 12 4 12 -15 0z"/>
<path d="M854 3868 l-19 -23 23 19 c12 11 22 21 22 23 0 8 -8 2 -26 -19z"/>
<path d="M789 3803 c-13 -16 -12 -17 4 -4 9 7 17 15 17 17 0 8 -8 3 -21 -13z"/>
<path d="M805 3380 c10 -11 20 -20 23 -20 3 0 -3 9 -13 20 -10 11 -20 20 -23 20 -3 0 3 -9 13 -20z"/>
<path d="M957 3219 c7 -7 15 -10 18 -7 3 3 -2 9 -12 12 -14 6 -15 5 -6 -5z"/>
<path d="M1505 2900 c27 -27 51 -50 54 -50 3 0 -17 23 -44 50 -27 28 -51 50 -54 50 -3 0 17 -22 44 -50z"/>
<path d="M1716 2242 c-3 -4 4 -9 15 -9 23 -2 25 3 4 10 -8 4 -16 3 -19 -1z"/>
<path d="M1450 2000 c-9 -6 -10 -10 -3 -10 6 0 15 5 18 10 8 12 4 12 -15 0z"/>
<path d="M1479 1973 l-24 -28 28 24 c25 23 32 31 24 31 -2 0 -14 -12 -28 -27z"/>
<path d="M1190 1880 c-9 -6 -10 -10 -3 -10 6 0 15 5 18 10 8 12 4 12 -15 0z"/>
<path d="M1214 1848 l-19 -23 23 19 c12 11 22 21 22 23 0 8 -8 2 -26 -19z"/>
<path d="M1220 1085 c13 -14 26 -25 28 -25 3 0 -5 11 -18 25 -13 14 -26 25 -28 25 -3 0 5 -11 18 -25z"/>
<path d="M1257 1099 c7 -7 15 -10 18 -7 3 3 -2 9 -12 12 -14 6 -15 5 -6 -5z"/>
<path d="M1535 259 c-4 -6 -5 -12 -2 -15 2 -3 7 2 10 11 7 17 1 20 -8 4z"/>
<path d="M1499 193 c-13 -16 -12 -17 4 -4 16 13 21 21 13 21 -2 0 -10 -8 -17 -17z"/>
<path d="M1404 28 l-19 -23 23 19 c12 11 22 21 22 23 0 8 -8 2 -26 -19z"/>
</g>
</g>
  <g id="id15:id15" transform="matrix(1.25,0,0,1.25,0.0,0.0)"><g transform="translate(0.000000,236.800000) scale(0.040000,-0.040000)" fill="#010101" stroke="none">
<path d="M1187 5902 c-14 -16 -17 -44 -17 -179 0 -145 2 -161 19 -177 11 -10 25 -15 30 -11 14 8 14 45 1 45 -6 0 -10 40 -10 100 0 89 2 100 20 110 18 9 20 20 18 70 -2 54 -4 60 -24 60 -11 0 -28 -8 -37 -18z"/>
<path d="M1277 5433 c-8 -15 30 -68 57 -82 16 -7 31 -22 34 -33 2 -11 15 -24 29 -29 13 -5 26 -16 30 -26 9 -23 75 -93 88 -93 6 0 29 -18 50 -40 27 -27 48 -40 66 -40 15 0 31 -4 34 -10 9 -15 45 -12 45 3 0 14 -65 47 -92 47 -9 0 -23 11 -32 25 -9 14 -34 36 -56 50 -22 14 -40 30 -40 35 0 13 -137 150 -150 150 -5 0 -10 5 -10 11 0 24 -43 50 -53 32z"/>
<path d="M1797 4833 c-4 -3 -7 -61 -7 -128 0 -109 -2 -124 -20 -140 -11 -10 -20 -28 -20 -40 0 -11 -5 -26 -11 -32 -16 -16 8 -28 26 -13 8 6 25 35 40 63 23 46 25 62 25 174 0 96 -3 123 -13 123 -8 0 -17 -3 -20 -7z"/>
<path d="M1613 4220 c-3 -11 -9 -20 -13 -20 -5 0 -10 -10 -12 -22 -2 -16 -12 -24 -37 -29 -19 -4 -38 -14 -43 -23 -5 -9 -14 -16 -21 -16 -7 0 -25 -13 -40 -30 -21 -22 -38 -30 -62 -30 -19 0 -37 -4 -40 -10 -3 -5 -30 -10 -59 -10 -50 0 -86 -17 -69 -33 10 -11 121 -8 128 3 3 6 19 10 34 10 31 0 83 23 101 45 7 8 18 15 26 15 7 0 18 9 24 20 6 11 18 20 27 20 23 0 73 49 73 71 0 10 5 21 10 24 16 10 12 35 -6 35 -9 0 -18 -9 -21 -20z"/>
<path d="M938 3950 c-8 -12 -24 -20 -40 -20 -15 0 -35 -8 -45 -19 -10 -10 -27 -21 -39 -25 -24 -7 -68 -83 -53 -92 6 -3 33 17 61 45 40 40 58 51 83 51 19 0 39 8 50 20 10 11 28 20 41 20 28 0 42 19 23 31 -25 16 -68 10 -81 -11z"/>
<path d="M714 3545 c-4 -9 4 -25 19 -39 14 -13 35 -44 46 -68 11 -25 27 -51 36 -58 8 -7 15 -18 15 -25 0 -7 7 -18 15 -25 18 -15 45 -68 45 -89 0 -15 41 -47 99 -79 37 -19 54 3 22 29 -13 10 -28 19 -35 19 -15 0 -46 36 -46 55 0 8 -4 15 -10 15 -5 0 -10 8 -10 18 0 10 -9 24 -20 32 -11 8 -20 22 -20 30 0 9 -13 29 -30 45 -16 16 -30 39 -30 52 0 13 -4 23 -10 23 -5 0 -10 9 -10 19 0 11 -13 29 -29 40 -35 25 -40 26 -47 6z"/>
<path d="M1353 3024 c-6 -17 30 -53 55 -54 21 0 55 -23 109 -75 42 -38 55 -47 65 -37 18 18 -73 107 -139 138 -29 14 -53 29 -53 34 0 17 -30 11 -37 -6z"/>
<path d="M1737 2553 c-10 -9 -9 -310 1 -316 4 -2 2 -2 -5 -1 -7 2 -15 -1 -18 -6 -7 -11 31 -24 45 -15 6 4 10 72 10 176 0 134 -3 169 -13 169 -8 0 -17 -3 -20 -7z"/>
<path d="M1483 2038 c-6 -7 -13 -21 -16 -30 -4 -10 -17 -18 -30 -18 -13 0 -33 -9 -45 -20 -12 -11 -25 -20 -30 -20 -5 0 -17 -9 -27 -20 -13 -14 -31 -20 -62 -20 -31 0 -48 -6 -60 -20 -13 -15 -30 -20 -69 -20 -31 0 -56 -5 -63 -13 -17 -21 -3 -27 59 -27 44 0 61 4 75 20 14 16 31 20 77 20 44 0 58 3 58 14 0 19 61 66 86 66 11 0 38 18 59 40 33 34 37 42 25 50 -20 13 -26 12 -37 -2z"/>
<path d="M777 1633 c-11 -10 -8 -148 2 -158 6 -6 11 -30 13 -55 2 -32 7 -45 18 -45 11 0 16 14 18 53 2 31 -1 52 -7 52 -7 0 -11 31 -11 80 0 60 -3 80 -13 80 -8 0 -17 -3 -20 -7z"/>
<path d="M1060 1216 c-9 -12 -4 -18 32 -35 26 -11 49 -31 56 -45 8 -17 20 -26 35 -26 13 0 36 -13 52 -30 16 -16 39 -30 51 -30 13 0 26 -4 29 -10 8 -14 82 -13 91 1 9 16 -15 29 -53 29 -17 0 -35 5 -38 10 -3 6 -17 10 -29 10 -14 0 -30 10 -40 25 -9 14 -28 28 -41 31 -14 3 -30 15 -36 25 -5 10 -28 28 -51 39 -50 24 -43 23 -58 6z"/>
<path d="M1617 873 c-4 -3 -2 -11 3 -18 5 -6 11 -81 12 -166 3 -129 5 -154 18 -154 22 0 28 309 6 330 -16 16 -29 19 -39 8z"/>
<path d="M1537 373 c-4 -3 -7 -21 -7 -39 0 -18 -4 -36 -10 -39 -5 -3 -10 -14 -10 -23 -1 -9 -14 -33 -30 -52 -25 -29 -30 -43 -30 -90 0 -47 -5 -61 -29 -91 l-30 -36 30 -1 c16 0 29 4 29 9 0 5 9 19 20 31 16 17 20 36 20 85 0 52 3 65 20 75 11 7 20 22 20 33 0 11 9 31 20 45 33 43 21 128 -13 93z"/>
</g>
</g>
</svg>
