<svg width="239" height="310" viewBox="0 0 239 310" fill="none" xmlns="http://www.w3.org/2000/svg">
<path d="M106.851 1.5C106.851 6.5 108.257 16.3029 105.82 20.5679C101.214 28.6284 94.9637 27.9582 86.85 29.7613C77.6837 31.7983 68.4193 31.4206 58.9558 31.4206C54.7076 31.4206 49.1573 27.7512 44.9639 28.5C44.9639 28.5 33.0736 27.5218 28.1467 29.7613C24.8578 31.2562 17.6519 32.5892 15 35C12.179 37.5646 8.99804 38.5051 6.88971 42.7218C4.18534 48.1305 -1.24358 60.6862 4.96133 65.7277C10.793 70.4659 16.3112 74.4454 22.9445 78.1052C29.7968 81.8858 37.2652 87.522 44.9639 89.496C55.6032 92.2241 65.8445 91.9626 76.7596 91.9626C86.731 91.9626 97.15 87.7826 106.851 85.5C108.539 85.1028 109 84.6975 111 84C112.416 83.506 114.212 82.0248 115.686 81.1099C121.751 77.3453 126.981 72.4788 133.086 68.7324C149.267 58.8034 168.496 61.5 186.856 61.5C193.479 61.5 201.5 61.5 207.575 64.5495C212.857 69.643 217.617 73.7711 220.087 80.6614C221.655 85.0361 222.764 90.2752 223 95C223.436 103.72 223.123 109.096 217.5 115.5C210.97 122.937 202.668 130.597 194.435 136.36C191.918 138.122 189.64 139.653 186.856 140.5C183.499 141.522 179.08 142.685 175.69 142.818C164.822 143.244 154.623 144.28 143.939 146.495C133.571 148.645 122.44 147.661 111.919 147.661C106.963 147.661 101.904 147.344 97 146.495C91.6208 145.564 86.6895 143.449 81.4236 142.19C75.2999 140.726 69.0646 137.202 63.3955 134.476C54.4735 130.187 45.4204 126.673 35.4117 126.673C32.3622 126.673 29.3127 126.673 26.2631 126.673C22.7239 126.673 20.7116 128.374 17.4733 129.454C13.9667 130.623 11.5522 132.442 8.5 134.476C4.77778 136.958 2.5 142.412 2.5 146.495C2.5 151.555 2.89457 154.973 4.55772 159.725C8.6587 171.442 25.7877 173.284 36.3086 175.197C37.5689 175.426 40.2397 175.771 41.5 176C43.5 176 44.2811 176.567 46.5335 176.901C50.0885 177.427 53.3379 177.529 56.9826 177.529C65.9219 177.529 74.8612 177.529 83.8004 177.529C124.708 177.529 165.735 176.721 206.544 176.721C212.294 176.721 224.496 177.303 229 182.5C233.168 187.309 233.61 190.347 235.424 196.05C238.732 206.444 235.565 219.877 223.989 223.944C206.678 230.026 189.355 232.42 171.026 232.42C163.763 232.42 157.762 230.093 150.5 229.998C142.5 228.5 134.75 226.522 126.5 226.142C122.524 225.958 117.69 226.142 113.5 226.142C109.012 226.142 101.5 226.769 97 226.769C92.5 226.769 89.8665 229.998 85.5 229.998C80.6415 229.998 75.9352 230.168 71.1493 229.37C63.2231 228.049 56.0851 224.5 48 224.5C41.5923 224.5 38.6184 225.193 34.156 229.998C31.4094 232.956 28.8618 235.823 28.1467 239.685C27.1179 245.24 26.7116 250.168 26.7116 255.83C26.7116 264.723 26.2189 272.937 34.156 278.432C36.1154 279.788 36.9521 281.879 39.2685 282.872C41.6879 283.909 44.939 285.917 46.8923 287.67C51.1651 291.505 55.7718 293.88 60.2563 297.177C62.6612 298.946 66.5 301.5 68.6874 303.456C69.9035 303.599 72.5562 305.406 74 306C76.6954 307.11 78.7952 307.597 81.603 308.299" stroke="black" stroke-width="3" stroke-linecap="round" stroke-dasharray="6 6"/>
</svg>
