<svg width="206" height="1057" viewBox="0 0 206 1057" fill="none" xmlns="http://www.w3.org/2000/svg">
<path d="M137.967 2.18311C135.525 2.79364 136.819 10.0549 136.699 12.3224C136.471 16.6693 132.925 20.2184 131.066 23.7291C125.451 34.3355 110.188 29.4236 101.212 33.3051C96.3277 35.4172 92.6117 32.3292 88.5377 36.4032C85.8689 39.072 82.404 40.1462 79.6658 42.7403C75.9233 46.2858 72.1058 48.6387 69.8081 53.4429C67.6443 57.9672 64.4565 68.6397 68.3295 73.1582C73.0937 78.7165 80.1729 78.4049 86.6365 79.6361C90.5327 80.3782 94.0076 82.9114 97.9728 83.8608C105.321 85.6202 112.776 85.3602 120.082 87.0998C134.869 90.6205 150.301 90.536 165.146 94.0705C174.616 96.3252 184.101 101.872 193.029 105.548C204.325 110.199 201.337 124.211 201.337 133.994C201.337 142.256 196.942 143.162 189.931 146.668C179.508 151.879 169.788 154.32 158.245 156.244C143.102 158.768 127.658 158.075 112.337 158.075C95.3441 158.075 78.3514 158.075 61.3587 158.075C54.2701 158.075 45.8331 156.89 38.8269 158.357C32.9566 159.585 28.47 164.205 23.97 167.58C20.6578 170.065 22.6322 180.925 22.6322 184.761C22.6322 193.261 22.9759 199.881 26.5048 207.645C30.4612 216.349 38.6751 221.229 46.8539 225.318C59.2525 231.517 70.9607 230.317 84.5242 230.317C113.759 230.317 142.769 229.05 171.905 229.05C176.5 229.05 198.719 226.024 201.056 231.866C205.905 243.991 205.736 253.82 193.029 259.468C160.86 273.765 123.737 269.607 89.1714 269.607C73.5449 269.607 53.5688 270.722 41.573 281.718C38.1973 284.812 32.7715 289.536 32.7715 294.322C32.7715 299.391 32.7715 304.461 32.7715 309.531C32.7715 314.95 39.2093 318.122 43.8261 319.177C53.716 321.438 61.8274 327.381 71.9909 327.979C85.0295 328.746 97.3476 331.71 110.506 331.71C119.237 331.71 127.968 331.71 136.699 331.71C147.664 331.71 164.402 327.673 171.905 337.484C178.414 345.996 180.188 353.677 179.791 364.382C179.582 370.046 160.061 371.917 155.006 374.239C149.379 376.825 139.395 374.802 133.179 374.802C125.498 374.802 117.759 374.513 110.084 374.802C104.21 375.024 91.5896 377.322 89.9459 384.308C88.0459 392.383 87.2702 401.96 87.2702 410.36C87.2702 419.245 87.0313 427.618 90.5092 435.568C94.4798 444.644 105.167 453.085 113.111 458.381C116.25 460.474 115.153 466.073 115.153 469.225C115.153 475.26 111.308 476.367 110.084 481.265C109.095 485.221 102.267 489.827 98.6769 491.123C92.7888 493.249 86.8589 497.869 81.3556 501.121C70.515 507.527 68.8573 512.312 69.5265 524.357C69.9399 531.798 86.838 538.487 92.0582 542.101C99.3963 547.181 107.633 553.592 113.886 559.845C122.116 568.074 124.809 573.881 115.153 581.391C109.322 585.926 101.386 588.494 94.3114 590.192C85.0065 592.425 76.6349 596.065 67.2733 597.938C60.8507 599.222 52.0897 599.92 46.8539 604.204C40.3455 609.529 36.0823 614.992 32.7715 622.441C28.4311 632.207 31.1877 648.896 31.5041 659.97C31.6187 663.983 33.7639 665.711 36.5033 668.279C40.6253 672.143 42.0987 678.514 46.1497 682.784C49.4534 686.266 53.8754 692.065 58.4014 693.909C74.8944 700.628 93.5035 697.993 111.069 697.993C126.386 697.993 145.197 700.325 157.964 708.836C168.472 715.841 165.85 727.325 165.85 738.62C165.85 742.671 167.234 749.492 165.216 753.125C161.364 760.06 149.26 761.363 142.332 761.363C130.268 761.363 119.016 765.166 106.774 765.166C95.5788 765.166 84.3834 765.166 73.1879 765.166C55.1705 765.166 35.1989 764.723 18.1258 770.869C12.9476 772.733 7.64138 774.521 4.2547 779.037C1.29803 782.979 2.35359 788.067 2.35359 793.049C2.35359 808.793 22.2093 814.847 34.0389 819.946C54.7993 828.894 78.0628 828.536 100.226 828.536C112.665 828.536 125.105 828.536 137.544 828.536C147.062 828.536 155.125 831.746 164.301 832.338C172.435 832.863 182.156 837.956 189.367 841.633C191.871 842.909 200.07 848.062 200.07 850.716C200.07 854.653 202.027 864.099 198.028 865.362C192.216 867.197 186.761 872.896 180.425 872.896C176.776 872.896 173.337 875.17 169.652 875.712C166.104 876.234 162.296 876.174 158.809 876.839C148.121 878.874 138.249 879.233 127.194 879.233C114.958 879.233 96.7529 875.989 85.2987 880.57C73.0866 885.455 70.7939 892.38 70.7939 904.581C70.7939 923.687 103.865 927.474 116.421 932.182C124.523 935.221 128.375 936.236 132.193 943.871C133.752 946.988 134.412 948.456 134.094 952.109C133.606 957.721 129.844 956.251 125.293 957.108C115.027 959.041 105.644 959.08 95.1564 959.08C86.8206 959.08 80.1318 962.275 72.3429 963.868C62.7024 965.84 39.1086 968.892 39.1086 981.964C39.1086 989.287 38.6814 992.873 44.2486 998.44C55.5339 1009.73 67.5183 1011.1 82.6935 1012.45C90.3824 1013.14 97.0853 1014.85 105.014 1014.85C113.463 1014.85 121.913 1014.85 130.362 1014.85C138.322 1014.85 149.373 1011.07 149.373 1021.11C149.373 1027.41 152.105 1039.52 143.67 1041.39C141.307 1041.92 133.485 1042.3 132.967 1044.63C132.14 1048.36 130.746 1052.1 129.095 1055.4" stroke="black" stroke-width="3" stroke-linecap="round" stroke-dasharray="5 5"/>
</svg>
