<?xml version="1.0" standalone="no"?>
<!DOCTYPE svg PUBLIC "-//W3C//DTD SVG 20010904//EN"
 "http://www.w3.org/TR/2001/REC-SVG-20010904/DTD/svg10.dtd">
<svg version="1.0" xmlns="http://www.w3.org/2000/svg"
 width="98.000000pt" height="184.000000pt" viewBox="0 0 98.000000 184.000000"
 preserveAspectRatio="xMidYMid meet">

<g transform="translate(0.000000,184.000000) scale(0.100000,-0.100000)"
fill="#000000" stroke="none">
<path d="M344 1817 c-10 -27 -9 -70 3 -74 12 -4 36 64 27 79 -8 12 -24 10 -30
-5z"/>
<path d="M346 1689 c-2 -8 -7 -29 -10 -47 -5 -28 -3 -33 12 -30 11 2 18 14 20
37 4 35 -14 66 -22 40z"/>
<path d="M336 1553 c-12 -12 -6 -64 9 -69 8 -4 12 -10 9 -15 -7 -12 22 -59 36
-59 16 0 11 26 -10 53 -11 14 -20 39 -20 55 0 31 -11 47 -24 35z"/>
<path d="M416 1392 c-9 -15 22 -62 40 -62 20 0 17 15 -9 46 -16 18 -26 23 -31
16z"/>
<path d="M494 1276 c-6 -17 2 -36 17 -36 12 0 12 37 -1 45 -6 3 -13 -1 -16 -9z"/>
<path d="M524 1206 c-6 -17 2 -36 17 -36 12 0 12 37 -1 45 -6 3 -13 -1 -16 -9z"/>
<path d="M524 1106 c-6 -17 2 -36 17 -36 12 0 12 37 -1 45 -6 3 -13 -1 -16 -9z"/>
<path d="M508 995 c-9 -20 -9 -28 1 -38 9 -9 14 -9 21 3 13 20 13 47 0 55 -5
3 -15 -5 -22 -20z"/>
<path d="M460 910 c-19 -14 -22 -22 -14 -30 14 -14 54 7 54 27 0 21 -15 22
-40 3z"/>
<path d="M399 877 c-15 -11 -39 -49 -39 -61 0 -3 5 -6 11 -6 13 0 59 47 59 60
0 15 -15 19 -31 7z"/>
<path d="M293 733 c-3 -10 -13 -26 -21 -36 -8 -9 -16 -29 -17 -45 -2 -15 -6
-46 -10 -68 -5 -28 -3 -44 5 -49 17 -11 20 -3 25 59 3 37 11 66 25 83 22 28
26 58 10 68 -6 3 -13 -2 -17 -12z"/>
<path d="M247 403 c-11 -11 -8 -48 5 -61 21 -21 30 -13 23 21 -8 36 -18 51
-28 40z"/>
<path d="M306 281 c-8 -13 11 -61 24 -61 5 0 10 11 10 24 0 26 -24 53 -34 37z"/>
<path d="M346 201 c-8 -13 11 -61 24 -61 5 0 10 11 10 24 0 26 -24 53 -34 37z"/>
<path d="M384 116 c-8 -21 -1 -49 14 -54 8 -2 12 7 12 27 0 33 -17 51 -26 27z"/>
<path d="M395 30 c-7 -12 2 -30 16 -30 12 0 12 27 0 35 -5 3 -12 1 -16 -5z"/>
</g>
</svg>
